<svg width="24" height="24" viewBox="0 0 24 24" fill="none" xmlns="http://www.w3.org/2000/svg">
<g clip-path="url(#clip0_104_4245)">
<path d="M11.9385 23.8923C18.5385 23.8923 23.8846 18.5462 23.8846 11.9462C23.8846 5.34615 18.5385 0 11.9385 0C5.33846 0 0 5.34615 0 11.9462C0 18.5462 5.34615 23.8923 11.9385 23.8923Z" fill="#008CE3"/>
<path d="M13.7615 6.76923H9.06924L8.68462 8.93846L12.9154 8.94615C15 8.94615 15.6154 9.7 15.6 10.9538C15.5923 11.6 15.3154 12.6846 15.1923 13.0385C14.8692 13.9769 14.2154 15.0538 11.7385 15.0461H7.62308L7.23077 17.2231H11.9077C13.5539 17.2231 14.2615 17.0308 15 16.6846C16.6462 15.9231 17.6308 14.3 18.0231 12.1769C18.6154 9.01538 17.8846 6.76923 13.7615 6.76923Z" fill="#F5F1FF"/>
<path d="M7.05383 10.9077C5.82306 10.9077 5.64613 11.7077 5.53075 12.1923C5.3769 12.8231 5.33075 13.0846 5.33075 13.0846H10.1307C11.3615 13.0846 11.5384 12.2846 11.6538 11.8C11.8077 11.1693 11.8538 10.9077 11.8538 10.9077H7.05383Z" fill="#F5F1FF"/>
</g>
<defs>
<clipPath id="clip0_104_4245">
<rect width="24" height="24" fill="white"/>
</clipPath>
</defs>
</svg>
