<svg width="24" height="24" viewBox="0 0 24 24" fill="none" xmlns="http://www.w3.org/2000/svg">
<path fill-rule="evenodd" clip-rule="evenodd" d="M12 0C5.37225 0 0 5.37225 0 12C0 18.6278 5.37225 24 12 24C18.6285 24 24 18.6278 24 12C24 5.37225 18.6285 0 12 0Z" fill="#58A65D"/>
<path d="M5.62606 13.59H5.53006C5.50206 13.806 5.40606 13.982 5.24206 14.118C5.08206 14.254 4.86406 14.322 4.58806 14.322C4.38805 14.322 4.19806 14.284 4.01806 14.208C3.83806 14.132 3.68006 14.01 3.54406 13.842C3.40806 13.674 3.29806 13.454 3.21406 13.182C3.13406 12.906 3.09406 12.57 3.09406 12.174C3.09406 11.778 3.13406 11.442 3.21406 11.166C3.29406 10.89 3.40606 10.666 3.55006 10.494C3.69406 10.318 3.86806 10.19 4.07206 10.11C4.27606 10.03 4.50406 9.98999 4.75605 9.98999C5.13206 9.98999 5.44406 10.072 5.69206 10.236C5.94006 10.396 6.13406 10.636 6.27406 10.956L5.57206 11.358C5.51606 11.17 5.42206 11.022 5.29006 10.914C5.15806 10.802 4.97806 10.746 4.75006 10.746C4.52206 10.746 4.34006 10.818 4.20406 10.962C4.07206 11.106 4.00605 11.322 4.00605 11.61V12.702C4.00605 12.99 4.07406 13.206 4.21006 13.35C4.34606 13.49 4.53406 13.56 4.77406 13.56C4.99006 13.56 5.16806 13.506 5.30806 13.398C5.45206 13.286 5.52406 13.122 5.52406 12.906V12.66H4.83406V11.94H6.34606V14.25H5.62606V13.59Z" fill="#F5F1FF"/>
<path d="M8.63496 14.322C8.38296 14.322 8.15496 14.284 7.95096 14.208C7.74696 14.128 7.57296 14.002 7.42896 13.83C7.28496 13.654 7.17296 13.43 7.09296 13.158C7.01296 12.882 6.97296 12.548 6.97296 12.156C6.97296 11.764 7.01296 11.432 7.09296 11.16C7.17296 10.884 7.28496 10.66 7.42896 10.488C7.57296 10.312 7.74696 10.186 7.95096 10.11C8.15496 10.03 8.38296 9.98999 8.63496 9.98999C8.88696 9.98999 9.11496 10.03 9.31896 10.11C9.52296 10.186 9.69696 10.312 9.84096 10.488C9.98496 10.66 10.097 10.884 10.177 11.16C10.257 11.432 10.297 11.764 10.297 12.156C10.297 12.548 10.257 12.882 10.177 13.158C10.097 13.43 9.98496 13.654 9.84096 13.83C9.69696 14.002 9.52296 14.128 9.31896 14.208C9.11496 14.284 8.88696 14.322 8.63496 14.322ZM8.63496 13.566C8.87496 13.566 9.05896 13.494 9.18696 13.35C9.31896 13.206 9.38496 12.99 9.38496 12.702V11.61C9.38496 11.322 9.31896 11.106 9.18696 10.962C9.05896 10.818 8.87496 10.746 8.63496 10.746C8.39496 10.746 8.20896 10.818 8.07696 10.962C7.94896 11.106 7.88496 11.322 7.88496 11.61V12.702C7.88496 12.99 7.94896 13.206 8.07696 13.35C8.20896 13.494 8.39496 13.566 8.63496 13.566Z" fill="#F5F1FF"/>
<path d="M12.4846 14.322C12.2326 14.322 12.0046 14.284 11.8006 14.208C11.5966 14.128 11.4226 14.002 11.2786 13.83C11.1346 13.654 11.0226 13.43 10.9426 13.158C10.8626 12.882 10.8226 12.548 10.8226 12.156C10.8226 11.764 10.8626 11.432 10.9426 11.16C11.0226 10.884 11.1346 10.66 11.2786 10.488C11.4226 10.312 11.5966 10.186 11.8006 10.11C12.0046 10.03 12.2326 9.98999 12.4846 9.98999C12.7366 9.98999 12.9646 10.03 13.1686 10.11C13.3726 10.186 13.5466 10.312 13.6906 10.488C13.8346 10.66 13.9466 10.884 14.0266 11.16C14.1066 11.432 14.1466 11.764 14.1466 12.156C14.1466 12.548 14.1066 12.882 14.0266 13.158C13.9466 13.43 13.8346 13.654 13.6906 13.83C13.5466 14.002 13.3726 14.128 13.1686 14.208C12.9646 14.284 12.7366 14.322 12.4846 14.322ZM12.4846 13.566C12.7246 13.566 12.9086 13.494 13.0366 13.35C13.1686 13.206 13.2346 12.99 13.2346 12.702V11.61C13.2346 11.322 13.1686 11.106 13.0366 10.962C12.9086 10.818 12.7246 10.746 12.4846 10.746C12.2446 10.746 12.0586 10.818 11.9266 10.962C11.7986 11.106 11.7346 11.322 11.7346 11.61V12.702C11.7346 12.99 11.7986 13.206 11.9266 13.35C12.0586 13.494 12.2446 13.566 12.4846 13.566Z" fill="#F5F1FF"/>
<path d="M17.2042 13.59H17.1082C17.0802 13.806 16.9842 13.982 16.8202 14.118C16.6602 14.254 16.4422 14.322 16.1662 14.322C15.9662 14.322 15.7762 14.284 15.5962 14.208C15.4162 14.132 15.2582 14.01 15.1222 13.842C14.9862 13.674 14.8762 13.454 14.7922 13.182C14.7122 12.906 14.6722 12.57 14.6722 12.174C14.6722 11.778 14.7122 11.442 14.7922 11.166C14.8722 10.89 14.9842 10.666 15.1282 10.494C15.2722 10.318 15.4462 10.19 15.6502 10.11C15.8542 10.03 16.0822 9.98999 16.3342 9.98999C16.7102 9.98999 17.0222 10.072 17.2702 10.236C17.5182 10.396 17.7122 10.636 17.8522 10.956L17.1502 11.358C17.0942 11.17 17.0002 11.022 16.8682 10.914C16.7362 10.802 16.5562 10.746 16.3282 10.746C16.1002 10.746 15.9182 10.818 15.7822 10.962C15.6502 11.106 15.5842 11.322 15.5842 11.61V12.702C15.5842 12.99 15.6522 13.206 15.7882 13.35C15.9242 13.49 16.1122 13.56 16.3522 13.56C16.5682 13.56 16.7462 13.506 16.8862 13.398C17.0302 13.286 17.1022 13.122 17.1022 12.906V12.66H16.4122V11.94H17.9242V14.25H17.2042V13.59Z" fill="#F5F1FF"/>
<path d="M18.6951 14.25V10.062H19.5531V13.5H20.9751V14.25H18.6951Z" fill="#F5F1FF"/>
</svg>
