<svg width="24" height="24" viewBox="0 0 24 24" fill="none" xmlns="http://www.w3.org/2000/svg">
<path fill-rule="evenodd" clip-rule="evenodd" d="M12 0C5.37225 0 0 5.37225 0 12C0 18.6278 5.37225 24 12 24C18.6285 24 24 18.6278 24 12C24 5.37225 18.6285 0 12 0Z" fill="#F19E39"/>
<path d="M6.4561 14.25L6.16585 13.0958H4.72135L4.4311 14.25H3.50635L4.84285 9.53851H6.07135L7.40785 14.25H6.4561ZM5.63935 11.2328L5.49085 10.416H5.38285L5.23435 11.2328L4.9576 12.3195H5.9296L5.63935 11.2328Z" fill="#F5F1FF"/>
<path d="M11.1552 11.793L11.2092 11.0033H11.1012L10.811 11.7525L10.028 13.4603L9.25171 11.7525L8.96146 11.0033H8.85346L8.90745 11.793V14.25H8.00296V9.53851H9.01546L9.65671 10.9425L10.0077 11.9483H10.0752L10.4262 10.9425L11.054 9.53851H12.0597V14.25H11.1552V11.793Z" fill="#F5F1FF"/>
<path d="M15.9766 14.25H12.7636V13.3995L14.8089 10.3823H12.8716V9.53851H15.9226V10.389L13.8706 13.4063H15.9766V14.25Z" fill="#F5F1FF"/>
<path d="M17.9267 11.7255L17.6297 10.9763H17.5217L17.5757 11.766V14.25H16.6712V9.53851H17.7242L18.9122 12.063L19.2092 12.8123H19.3172L19.2632 12.0225V9.53851H20.1677V14.25H19.1147L17.9267 11.7255Z" fill="#F5F1FF"/>
</svg>
