<svg width="24" height="24" viewBox="0 0 24 24" fill="none" xmlns="http://www.w3.org/2000/svg">
<circle cx="12" cy="12" r="12" fill="#0AC18E"/>
<path fill-rule="evenodd" clip-rule="evenodd" d="M17.6283 12.4985L17.6216 12.4861L17.6205 12.484C17.6186 12.4782 17.6169 12.4724 17.6152 12.4664C17.6132 12.4594 17.6112 12.4522 17.6088 12.445L17.6082 12.4439L17.6076 12.4429L17.6071 12.4418L17.6065 12.4408L17.6059 12.4398L17.6053 12.4387L17.6042 12.4366C17.4634 11.9656 17.1841 11.5478 16.8028 11.2374L16.8023 11.2364L16.7868 11.2243C16.7804 11.2193 16.774 11.2143 16.7678 11.2096L16.7522 11.198L16.7409 11.1895L16.7361 11.1854L16.7254 11.1778L16.7205 11.1738L16.7098 11.1662L16.7049 11.1622L16.6937 11.1536L16.6878 11.15L16.6765 11.1415L16.6706 11.1379L16.6584 11.1299L16.6525 11.1263L16.6453 11.1155L16.6389 11.111L16.6267 11.103L16.6203 11.0984L16.608 11.0904L16.6016 11.0858L16.5895 11.0778L16.583 11.0732L16.5701 11.0641L16.5637 11.0595L16.5498 11.051L16.5434 11.0465L16.5295 11.0379L16.523 11.0334L16.5091 11.0249L16.5027 11.0204L16.4888 11.0118L16.4814 11.0079L16.4675 10.9993L16.46 10.9954L16.445 10.9874L16.4376 10.9835L16.4221 10.9745L16.4146 10.9705L16.3991 10.9616L16.3916 10.9576L16.3761 10.9486L16.3681 10.9437L16.3526 10.9347L16.3445 10.9297L16.328 10.9212L16.32 10.9163L16.3034 10.9078L16.2923 10.9017L16.2917 10.9007C16.2877 10.8982 16.2836 10.8961 16.2795 10.894C16.2753 10.8919 16.2712 10.8897 16.2671 10.8872C15.924 10.7109 15.5536 10.5938 15.1714 10.541C15.2786 10.4258 15.3767 10.3026 15.465 10.1723L15.479 10.1514L15.4801 10.1508L15.4866 10.1406L15.4951 10.1267L15.4997 10.1203L15.5082 10.1064L15.5127 10.1L15.5213 10.0861L15.5258 10.0797L15.5344 10.0658L15.5389 10.0593L15.5474 10.0454L15.5519 10.039L15.5594 10.0256L15.5639 10.0192L15.5714 10.0058L15.575 9.99989L15.5824 9.98653L15.586 9.98062L15.5935 9.96726L15.597 9.96135L15.6035 9.94853L15.6071 9.94261L15.6135 9.92983L15.6171 9.92392L15.6235 9.91113L15.6271 9.90522L15.634 9.89343L15.6376 9.88752L15.6448 9.87577L15.6484 9.86986L15.6545 9.85869L15.6581 9.85278L15.6642 9.84156L15.6666 9.83626L15.6728 9.82505L15.6752 9.81971L15.6813 9.80854L15.6838 9.8032L15.6899 9.79202L15.6924 9.78669L15.6973 9.77594L15.6997 9.7706L15.7047 9.75986L15.7072 9.75452L15.7121 9.74377L15.7146 9.73847L15.72 9.72626L15.7274 9.71032C15.7301 9.70429 15.7325 9.69838 15.7349 9.69247C15.7374 9.68641 15.7399 9.68034 15.7426 9.67414L15.7437 9.67356C15.9081 9.26827 15.9466 8.82285 15.8543 8.39533L15.8537 8.39429L15.8526 8.39221L15.852 8.39118L15.8514 8.39014L15.8509 8.3891L15.8503 8.38806L15.8497 8.38702L15.8491 8.38602C15.8467 8.37398 15.8442 8.36198 15.8407 8.35048V8.34787L15.8402 8.34683L15.8396 8.34579L15.8346 8.33651L15.8344 8.33565C15.8309 8.31924 15.8273 8.30269 15.822 8.28597C15.8191 8.27224 15.815 8.25817 15.811 8.24456L15.811 8.24449L15.8085 8.23582L15.8023 8.22447L15.8012 8.22239L15.7907 8.18804L15.7901 8.187L15.7895 8.18596L15.789 8.18492L15.7884 8.18388L15.7879 8.18288L15.7872 8.18184L15.7867 8.1808C15.6616 7.76166 15.4132 7.38989 15.0739 7.11391L15.0733 7.11284C15.0683 7.10863 15.063 7.10458 15.0577 7.10054L15.0577 7.1005C15.0527 7.09673 15.0478 7.09297 15.0431 7.08909L15.0297 7.07895L15.019 7.07107L15.0142 7.06702L15.005 7.05986L15.0002 7.05577L14.991 7.04861L14.9862 7.04456L14.976 7.03804L14.9711 7.03399L14.9604 7.02644L14.9556 7.02239L14.9448 7.01483L14.9399 7.01078L14.9292 7.00322L14.9233 6.99964L14.9125 6.99208L14.9066 6.9885L14.8959 6.98094L14.89 6.97736L14.8782 6.97038L14.8723 6.96679L14.8606 6.95981L14.8547 6.95623L14.8429 6.94924L14.837 6.94566L14.8252 6.9385L14.8193 6.93491L14.8071 6.92685L14.8012 6.92327L14.7888 6.91525L14.7829 6.91167L14.7696 6.90418L14.7637 6.9006L14.7503 6.89311L14.7439 6.88856L14.7305 6.88111L14.7241 6.87656L14.7107 6.86911L14.7043 6.86456L14.6904 6.85604L14.6829 6.85206L14.669 6.84353L14.6616 6.83959L14.6466 6.83161L14.6392 6.82767L14.6242 6.81971L14.6134 6.81477L14.6129 6.81373L14.5904 6.80184C13.9351 6.46125 13.1026 6.3587 12.2649 6.57359L12.047 6.62954L11.4949 4.48523L10.2178 4.81263L10.7658 6.95046L9.74419 7.21252L9.19441 5.08168L7.91733 5.40901L8.46664 7.54666L5.83276 8.22454L6.1832 9.58663L7.24447 9.31407C7.41314 9.27058 7.59219 9.29588 7.74221 9.38441C7.89223 9.47293 8.00094 9.61743 8.04442 9.78611L8.0447 9.78733L9.51795 15.519C9.57802 15.7534 9.43699 15.9922 9.20272 16.0528L8.27281 16.292L8.32744 17.9119L10.9579 17.2358L11.5145 19.3696L12.791 19.0412L12.2412 16.9024L13.2628 16.6404L13.8127 18.7789L15.0892 18.4504L14.5375 16.3034C14.7539 16.2469 14.9399 16.1988 15.0686 16.1655C16.0126 15.9227 16.776 15.3691 17.2379 14.6791L17.2535 14.6561L17.2545 14.6555L17.2621 14.6448L17.2721 14.6287L17.2771 14.6207L17.2871 14.6046L17.2922 14.5966L17.3011 14.5811L17.3061 14.573L17.315 14.5575L17.319 14.55L17.328 14.5345L17.332 14.5271L17.3409 14.5116L17.3448 14.5041L17.3528 14.4891L17.3568 14.4817L17.3647 14.4667L17.3687 14.4592L17.3772 14.4453L17.3812 14.4379L17.3897 14.424L17.3937 14.4165L17.4011 14.4031L17.4051 14.3957L17.4126 14.3823L17.4165 14.3749L17.424 14.3615L17.427 14.3546L17.4345 14.3412L17.4376 14.3343L17.444 14.3215L17.4475 14.3156L17.454 14.3028L17.4576 14.2969L17.464 14.2841L17.4676 14.2782L17.474 14.2654L17.4776 14.2595L17.484 14.2467L17.4876 14.2408L17.494 14.228L17.4976 14.2221L17.503 14.2099L17.5066 14.204L17.512 14.1918L17.5145 14.1865L17.5204 14.1726L17.5283 14.155L17.5346 14.1408C17.5385 14.1322 17.5423 14.1238 17.5455 14.1151L17.546 14.1135C17.7307 13.6576 17.7742 13.1567 17.6707 12.6757L17.6701 12.6747L17.6696 12.6737L17.669 12.6726L17.6684 12.6716L17.6678 12.6706L17.6673 12.6695L17.6667 12.6685L17.6661 12.6674L17.657 12.6283V12.6257L17.6565 12.6247L17.6559 12.6236L17.6553 12.6226L17.6547 12.6216L17.6542 12.6205L17.6536 12.6195L17.653 12.6184L17.6524 12.6174L17.6519 12.6164L17.6513 12.6154L17.6507 12.6143L17.6502 12.6133L17.6496 12.6122L17.6474 12.6081L17.643 12.5899C17.64 12.5771 17.637 12.5642 17.633 12.5518L17.6316 12.5375C17.6305 12.5267 17.629 12.513 17.6283 12.4985ZM10.1244 8.66427C10.2072 8.64302 10.3885 8.59719 10.5979 8.54428L10.5983 8.54418C10.94 8.45783 11.3561 8.35267 11.5402 8.30473C12.0125 8.18384 12.4778 8.23076 12.8414 8.40575L12.8536 8.41116L12.8589 8.41363L12.8664 8.41757L12.87 8.41958L12.8774 8.42352L12.881 8.42552L12.8884 8.42946L12.892 8.43147L12.8995 8.43541L12.9031 8.43738L12.9106 8.44135L12.9142 8.44332L12.9216 8.4473L12.9252 8.44927L12.9327 8.45325L12.9363 8.45522L12.9437 8.45919L12.9473 8.46116L12.9547 8.46514L12.9583 8.46711L12.9648 8.47166L12.9684 8.47363L12.9748 8.47818L12.9783 8.48015L12.9848 8.4847L12.9883 8.48667L12.9943 8.49025L12.9978 8.49222L13.0037 8.4958L13.0073 8.49777L13.0132 8.50135L13.0168 8.50332L13.0227 8.50691L13.0263 8.50888L13.0322 8.51246L13.0349 8.51504L13.0409 8.51862L13.043 8.52009L13.0489 8.52367L13.051 8.52518L13.0569 8.52876L13.0591 8.53023L13.065 8.53381L13.0671 8.53531L13.072 8.53936L13.0741 8.54086L13.08 8.54445L13.0881 8.54946C13.091 8.55124 13.0938 8.55337 13.0966 8.5555C13.0994 8.55768 13.1023 8.55985 13.1053 8.56164C13.2913 8.70205 13.428 8.89785 13.4957 9.12088L13.4974 9.12392L13.5001 9.13265L13.5031 9.14219L13.5037 9.14326L13.5071 9.14935C13.5083 9.15425 13.5097 9.15872 13.511 9.1632C13.5123 9.16731 13.5136 9.17143 13.5147 9.1759C13.5173 9.18547 13.519 9.19527 13.5198 9.20516L13.5231 9.21125L13.5237 9.21229C13.5246 9.21869 13.5262 9.22497 13.5285 9.23103L13.5301 9.23407C13.578 9.46212 13.5526 9.69947 13.4575 9.9122L13.4491 9.93136L13.4446 9.94049L13.441 9.9464L13.4401 9.94959L13.4376 9.95493L13.4366 9.95812L13.4331 9.96403L13.4321 9.96711L13.4285 9.97302L13.4275 9.97621L13.424 9.98212L13.423 9.98516L13.4194 9.99107L13.4184 9.99426L13.4149 10.0002L13.4139 10.0034L13.4103 10.0093L13.4083 10.0129L13.4047 10.0188L13.4027 10.0224L13.3991 10.0283L13.3971 10.0319L13.3935 10.0378L13.3916 10.0414L13.387 10.0478L13.3851 10.0514L13.3805 10.0578L13.3785 10.0614L13.374 10.0678L13.372 10.0714L13.3675 10.0778L13.3655 10.0814L13.361 10.0878L13.359 10.0914L13.3544 10.0979L13.3525 10.1014L13.3479 10.1078L13.3459 10.1114L13.3414 10.1178L13.3394 10.1214L13.3338 10.1284L13.3319 10.132L13.3263 10.139L13.3243 10.1426L13.3187 10.1495L13.3167 10.1531L13.3112 10.1601L13.3071 10.1649L13.2996 10.1757C13.0647 10.5048 12.6799 10.7706 12.2076 10.8915C12.0389 10.9347 11.6774 11.029 11.3561 11.1129C11.1103 11.177 10.888 11.2351 10.7937 11.2593L10.1244 8.66427ZM15.1198 13.0647L15.1164 13.0586L15.1167 13.0585C15.1183 13.0443 15.1175 13.0328 15.1122 13.0305C15.1094 13.0209 15.1072 13.0121 15.105 13.0035L15.1044 13.0013L15.1011 12.9952L15.1005 12.9942L15.0942 12.9749L15.092 12.9708C15.0145 12.7252 14.8561 12.5131 14.6425 12.3691C14.6394 12.3669 14.636 12.3648 14.6327 12.3628C14.6291 12.3606 14.6255 12.3584 14.6222 12.356L14.6136 12.3499L14.6071 12.3454L14.6036 12.3434L14.5977 12.3398L14.5941 12.3379L14.5876 12.3333L14.584 12.3314L14.5776 12.3268L14.574 12.3248L14.5676 12.3203L14.564 12.3183L14.5576 12.3138L14.554 12.3118L14.5476 12.3072L14.544 12.3052L14.5365 12.3013L14.533 12.2993L14.5255 12.2954L14.5219 12.2934L14.5144 12.2894L14.5109 12.2874L14.5034 12.2835L14.4998 12.2815L14.4923 12.2775L14.4888 12.2755L14.4813 12.2716L14.4777 12.2696L14.4703 12.2657L14.4667 12.2637L14.4592 12.2597L14.4556 12.2577L14.4481 12.2538L14.4446 12.2518L14.4354 12.2473L14.4318 12.2453L14.4227 12.2409L14.4191 12.2389L14.41 12.2345L14.4064 12.2325L14.3973 12.228L14.3925 12.2266L14.3834 12.2222L14.3786 12.2208L14.3695 12.2163L14.3647 12.2149L14.3546 12.2111L14.3477 12.208L14.3339 12.2021C13.9097 12.021 13.3612 11.9805 12.8024 12.1238C12.6187 12.1713 12.2405 12.2669 11.8839 12.3571C11.5566 12.4398 11.2475 12.518 11.1238 12.5501L11.8487 15.3706C11.9951 15.3332 12.3989 15.228 12.786 15.1271C13.0838 15.0496 13.3717 14.9746 13.5249 14.935C14.0838 14.7916 14.5438 14.492 14.8291 14.1277L14.8387 14.1159L14.8438 14.1104L14.8499 14.1019L14.853 14.0976L14.859 14.089L14.8621 14.0847L14.8682 14.0762L14.8713 14.0719L14.8773 14.0633L14.8804 14.059L14.8865 14.0504L14.8895 14.0461L14.8945 14.0381L14.8976 14.0338L14.9026 14.0258L14.9045 14.0222L14.9096 14.0141L14.9116 14.0106L14.9166 14.0025L14.9185 13.9989L14.9241 13.9919L14.9261 13.9884L14.9317 13.9814L14.9337 13.9778L14.9382 13.9714L14.9402 13.9678L14.9447 13.9614L14.9467 13.9578L14.9512 13.9514L14.9532 13.9478L14.9578 13.9413L14.9597 13.9377L14.9643 13.9313L14.9663 13.9277L14.9708 13.9213L14.9728 13.9178L14.9773 13.9113L14.9793 13.9077L14.9838 13.9013L14.9858 13.8977L14.9904 13.8913L14.9923 13.8877L14.9959 13.8818L14.9979 13.8782L15.0015 13.8723L15.0034 13.8688L15.0074 13.8613L15.0129 13.8517L15.0243 13.8309C15.1412 13.6027 15.1774 13.3416 15.127 13.0903L15.1264 13.0892L15.1258 13.0882L15.1253 13.0871L15.1247 13.0861C15.124 13.0823 15.1233 13.079 15.1225 13.0756C15.1217 13.0724 15.121 13.0692 15.1204 13.0657L15.1198 13.0647Z" fill="#F5F1FF"/>
</svg>
