<svg width="24" height="24" viewBox="0 0 24 24" fill="none" xmlns="http://www.w3.org/2000/svg">
<path fill-rule="evenodd" clip-rule="evenodd" d="M12 0C5.37225 0 0 5.37225 0 12C0 18.6278 5.37225 24 12 24C18.6285 24 24 18.6278 24 12C24 5.37225 18.6285 0 12 0Z" fill="#232323"/>
<path d="M7.68278 14.1255H7.56728C7.52328 14.406 7.38853 14.6398 7.16303 14.8268C6.93753 15.0083 6.62678 15.099 6.23078 15.099C5.56528 15.099 5.05378 14.8433 4.69628 14.3318C4.33878 13.8203 4.16003 13.0888 4.16003 12.1373C4.16003 11.6093 4.21228 11.1583 4.31678 10.7843C4.42678 10.4048 4.58078 10.094 4.77878 9.85202C4.97678 9.60452 5.21328 9.42577 5.48828 9.31577C5.76878 9.20027 6.07953 9.14252 6.42053 9.14252C6.93753 9.14252 7.36103 9.25527 7.69103 9.48077C8.02103 9.70077 8.27953 10.0198 8.46653 10.4378L7.62503 10.9245C7.53153 10.6495 7.38853 10.4323 7.19603 10.2728C7.00903 10.1133 6.75053 10.0335 6.42053 10.0335C6.05753 10.0335 5.77153 10.1518 5.56253 10.3883C5.35903 10.6248 5.25728 10.963 5.25728 11.403V12.8385C5.25728 13.2785 5.35903 13.6168 5.56253 13.8533C5.77153 14.0898 6.05753 14.208 6.42053 14.208C6.75053 14.208 7.02553 14.12 7.24553 13.944C7.46553 13.768 7.57553 13.515 7.57553 13.185V12.7643H6.56903V11.8898H8.55728V15H7.68278V14.1255Z" fill="#F5F1FF"/>
<path d="M13.8619 11.7165L13.9279 10.743H13.8124L13.4329 11.6835L12.3934 13.9028L11.3622 11.6835L10.9827 10.7513H10.8672L10.9332 11.7165V15H9.95969V9.24152H11.0899L11.9479 11.1143L12.3687 12.294H12.4429L12.8637 11.1143L13.7052 9.24152H14.8354V15H13.8619V11.7165Z" fill="#F5F1FF"/>
<path d="M16.3425 15V9.24152H19.7992V10.1408H17.3737V11.6423H19.494V12.5168H17.3737V14.1008H19.7992V15H16.3425Z" fill="#F5F1FF"/>
</svg>
