<svg width="24" height="24" viewBox="0 0 24 24" fill="none" xmlns="http://www.w3.org/2000/svg">
<path fill-rule="evenodd" clip-rule="evenodd" d="M12.0001 0C5.37244 0 0.000244138 5.3722 0.000244138 11.9999C0.000244138 18.6276 5.37244 23.9998 12.0001 23.9998C18.6286 23.9998 24 18.6276 24 11.9999C24 5.3722 18.6286 0 12.0001 0Z" fill="#345D9D"/>
<path fill-rule="evenodd" clip-rule="evenodd" d="M12.1875 12.3966L10.9455 16.6101L17.6115 16.6123C17.8402 16.6123 18.0052 16.8298 17.9422 17.0496L17.3685 19.0521C17.313 19.2471 17.1337 19.3828 16.929 19.3828L6.72984 19.3798L8.45332 13.5531L6.54534 14.1449L6.95334 12.7596L8.86282 12.1679L11.2845 3.98472C11.3408 3.78822 11.52 3.65322 11.724 3.65322L14.3063 3.65472C14.535 3.65472 14.6993 3.87297 14.637 4.09197L12.5985 11.0084L14.5065 10.4174L14.0978 11.8026L12.1875 12.3966Z" fill="#F5F1FF"/>
</svg>
