<svg width="24" height="24" viewBox="0 0 24 24" fill="none" xmlns="http://www.w3.org/2000/svg">
<path fill-rule="evenodd" clip-rule="evenodd" d="M12 0C5.37225 0 0 5.37225 0 12C0 18.6278 5.37225 24 12 24C18.6285 24 24 18.6278 24 12C24 5.37225 18.6285 0 12 0Z" fill="#F2E163"/>
<path d="M8.44011 14.1255H8.32461C8.28061 14.406 8.14586 14.6398 7.92036 14.8268C7.69486 15.0083 7.38411 15.099 6.98811 15.099C6.32261 15.099 5.81111 14.8433 5.45361 14.3318C5.09611 13.8203 4.91736 13.0888 4.91736 12.1373C4.91736 11.6093 4.96961 11.1583 5.07411 10.7843C5.18411 10.4048 5.33811 10.094 5.53611 9.85202C5.73411 9.60452 5.97061 9.42577 6.24561 9.31577C6.52611 9.20027 6.83686 9.14252 7.17786 9.14252C7.69486 9.14252 8.11836 9.25527 8.44836 9.48077C8.77836 9.70077 9.03686 10.0198 9.22386 10.4378L8.38236 10.9245C8.28886 10.6495 8.14586 10.4323 7.95336 10.2728C7.76636 10.1133 7.50786 10.0335 7.17786 10.0335C6.81486 10.0335 6.52886 10.1518 6.31986 10.3883C6.11636 10.6248 6.01461 10.963 6.01461 11.403V12.8385C6.01461 13.2785 6.11636 13.6168 6.31986 13.8533C6.52886 14.0898 6.81486 14.208 7.17786 14.208C7.50786 14.208 7.78286 14.12 8.00286 13.944C8.22286 13.768 8.33286 13.515 8.33286 13.185V12.7643H7.32636V11.8898H9.31461V15H8.44011V14.1255Z" fill="#020012" fill-opacity="0.6"/>
<path d="M10.717 15V9.24152H11.7483V14.1008H13.7695V15H10.717Z" fill="#020012" fill-opacity="0.6"/>
<path d="M14.9164 9.24152H16.8799C17.2264 9.24152 17.5344 9.29652 17.8039 9.40652C18.0789 9.51102 18.3099 9.68152 18.4969 9.91802C18.6894 10.149 18.8352 10.446 18.9342 10.809C19.0332 11.172 19.0827 11.6093 19.0827 12.1208C19.0827 12.6323 19.0332 13.0695 18.9342 13.4325C18.8352 13.7955 18.6894 14.0953 18.4969 14.3318C18.3099 14.5628 18.0789 14.7333 17.8039 14.8433C17.5344 14.9478 17.2264 15 16.8799 15H14.9164V9.24152ZM16.8799 14.1008C17.2319 14.1008 17.5042 13.9935 17.6967 13.779C17.8892 13.559 17.9854 13.2318 17.9854 12.7973V11.4443C17.9854 11.0098 17.8892 10.6853 17.6967 10.4708C17.5042 10.2508 17.2319 10.1408 16.8799 10.1408H15.9477V14.1008H16.8799Z" fill="#020012" fill-opacity="0.6"/>
</svg>
