<svg width="24" height="24" viewBox="0 0 24 24" fill="none" xmlns="http://www.w3.org/2000/svg">
<path fill-rule="evenodd" clip-rule="evenodd" d="M12 0C5.37225 0 0 5.37225 0 12C0 18.6278 5.37225 24 12 24C18.6285 24 24 18.6278 24 12C24 5.37225 18.6285 0 12 0Z" fill="#CF832E"/>
<path d="M7.52633 15.099C7.09733 15.099 6.71783 15.022 6.38783 14.868C6.06333 14.7085 5.78283 14.4748 5.54633 14.1668L6.22283 13.515C6.38783 13.7405 6.58033 13.9138 6.80033 14.0348C7.02033 14.1503 7.26783 14.208 7.54283 14.208C8.15883 14.208 8.46683 13.9275 8.46683 13.3665C8.46683 13.1355 8.41183 12.9595 8.30183 12.8385C8.19183 12.7175 8.01033 12.6295 7.75733 12.5745L7.25408 12.4755C6.73158 12.3655 6.34658 12.1785 6.09908 11.9145C5.85158 11.6505 5.72783 11.282 5.72783 10.809C5.72783 10.259 5.89008 9.84377 6.21458 9.56327C6.54458 9.28277 7.01208 9.14252 7.61708 9.14252C8.02958 9.14252 8.38158 9.21127 8.67308 9.34877C8.97008 9.48077 9.22308 9.68977 9.43208 9.97577L8.75558 10.611C8.61258 10.4185 8.45033 10.2755 8.26883 10.182C8.08733 10.083 7.86458 10.0335 7.60058 10.0335C7.30908 10.0335 7.09458 10.0913 6.95708 10.2068C6.81958 10.3223 6.75083 10.5093 6.75083 10.7678C6.75083 10.9823 6.80308 11.1473 6.90758 11.2628C7.01758 11.3783 7.19358 11.4635 7.43558 11.5185L7.93883 11.6258C8.21933 11.6863 8.45583 11.7605 8.64833 11.8485C8.84633 11.9365 9.00583 12.0465 9.12683 12.1785C9.25333 12.3105 9.34408 12.4673 9.39908 12.6488C9.45958 12.8248 9.48983 13.0338 9.48983 13.2758C9.48983 13.8698 9.31933 14.3235 8.97833 14.637C8.64283 14.945 8.15883 15.099 7.52633 15.099Z" fill="#F5F1FF"/>
<path d="M10.713 15V9.24152H11.7442V14.1008H13.7655V15H10.713Z" fill="#F5F1FF"/>
<path d="M15.6899 15L13.9986 9.24152H15.0629L16.0364 12.8055L16.2509 14.076H16.3664L16.5809 12.8055L17.5462 9.24152H18.5774L16.9109 15H15.6899Z" fill="#F5F1FF"/>
</svg>
