<svg width="24" height="24" viewBox="0 0 24 24" fill="none" xmlns="http://www.w3.org/2000/svg">
<circle cx="12" cy="12" r="12" fill="black"/>
<path fill-rule="evenodd" clip-rule="evenodd" d="M0 12C0 5.3726 5.3726 0 12 0C18.6274 0 24 5.3726 24 12C24 18.6274 18.6274 24 12 24C5.3726 24 0 18.6274 0 12Z" fill="url(#paint0_linear_104_4255)"/>
<path d="M7.74157 12.5502L7.30678 13.1371C7.20393 13.3407 7.35199 13.5813 7.58006 13.5813H9.00292C9.45283 15.4413 10.7485 16.7097 12.4844 16.6835C13.7169 16.6835 14.6459 16.0707 15.2663 14.8506C15.3453 14.6953 15.276 14.5047 15.1169 14.4336L14.4382 14.1304C14.2888 14.0637 14.1127 14.1262 14.0402 14.2729C13.7199 14.923 13.1876 15.3373 12.4844 15.3373C11.8478 15.3373 11.337 15.0255 10.9458 14.3956C10.7928 14.1517 10.6712 13.8796 10.5785 13.5815H12.4009C12.5164 13.5815 12.6221 13.5165 12.6742 13.4134L13.109 12.8265C13.2118 12.6228 13.0638 12.3823 12.8357 12.3823H10.3735C10.3664 12.2561 10.3621 12.1274 10.3621 11.9946C10.3607 11.863 10.3644 11.7343 10.3713 11.6074H12.4009C12.5164 11.6074 12.6221 11.5423 12.6742 11.4393L13.109 10.8524C13.2118 10.6489 13.0638 10.4082 12.8357 10.4082H10.5764C10.9068 9.33074 11.5967 8.62486 12.4844 8.63881C13.1607 8.63881 13.6859 9.00906 14.0227 9.61561C14.0982 9.75158 14.2681 9.80368 14.4103 9.74082L15.0925 9.43965C15.2557 9.36755 15.3251 9.17024 15.2387 9.0141C14.6091 7.87696 13.691 7.3057 12.4844 7.3057C11.3834 7.3057 10.5014 7.74334 9.83166 8.61225C9.44023 9.12402 9.16762 9.72435 9.00594 10.4082H8.01502C7.89956 10.4082 7.79384 10.4733 7.74174 10.5763L7.30695 11.1632C7.20409 11.3669 7.35216 11.6074 7.58023 11.6074H8.84225C8.8362 11.7348 8.83031 11.8625 8.83031 11.9946C8.82863 12.1255 8.83183 12.2546 8.83737 12.3823H8.01519C7.89973 12.3823 7.79367 12.4472 7.74157 12.5502Z" fill="white"/>
<path d="M4.10377 11.4944C4.35082 7.54957 7.52662 4.36386 11.4707 4.1052C13.5439 3.96924 15.4609 4.63898 16.9431 5.82907C17.087 5.94453 17.293 5.93932 17.4307 5.81646L18.012 5.29781C18.1844 5.14403 18.1809 4.87142 18.0028 4.72419C16.2738 3.29529 14.0291 2.46924 11.5938 2.57193C6.76393 2.77562 2.83368 6.66066 2.57721 11.4882C2.46629 13.5763 3.03889 15.5281 4.09049 17.1405C4.21637 17.3336 4.48612 17.3671 4.65822 17.2136L5.23889 16.6955C5.3762 16.5729 5.40578 16.3692 5.30746 16.2138C4.45234 14.8608 3.99486 13.2329 4.10377 11.4944Z" fill="white"/>
<path d="M19.9097 6.85931C19.7838 6.66637 19.514 6.63275 19.3419 6.7862L18.7612 7.30435C18.6239 7.42687 18.5944 7.63057 18.6927 7.78603C19.5478 9.13897 20.0053 10.767 19.8962 12.5055C19.649 16.4502 16.4732 19.6358 12.5291 19.8944C10.4559 20.0304 8.53906 19.3607 7.05671 18.1706C6.91285 18.0551 6.70679 18.0603 6.56915 18.1832L5.98797 18.7018C5.81553 18.8556 5.81906 19.1282 5.99722 19.2754C7.72629 20.7045 9.971 21.5304 12.4065 21.4277C17.2364 21.2238 21.1666 17.3386 21.4228 12.5111C21.5335 10.4232 20.9611 8.47141 19.9097 6.85931Z" fill="white"/>
<defs>
<linearGradient id="paint0_linear_104_4255" x1="3.5147" y1="3.51472" x2="20.4853" y2="20.4853" gradientUnits="userSpaceOnUse">
<stop stop-color="#1AA3FF"/>
<stop offset="1" stop-color="#8656EF"/>
</linearGradient>
</defs>
</svg>
