<svg width="24" height="24" viewBox="0 0 24 24" fill="none" xmlns="http://www.w3.org/2000/svg">
<circle cx="12" cy="12" r="12" fill="#9A95A4"/>
<path d="M12.2211 16.3725C11.7036 16.3725 11.2348 16.29 10.8148 16.125C10.4023 15.9525 10.0461 15.6975 9.74609 15.36C9.45359 15.0225 9.22859 14.6063 9.07109 14.1113C8.91359 13.6088 8.83484 13.0275 8.83484 12.3675C8.83484 11.7075 8.91359 11.1225 9.07109 10.6125C9.22859 10.095 9.45359 9.66375 9.74609 9.31875C10.0461 8.96625 10.4023 8.7 10.8148 8.52C11.2348 8.34 11.7036 8.25 12.2211 8.25C12.9261 8.25 13.5111 8.4 13.9761 8.7C14.4411 9 14.8123 9.45375 15.0898 10.0612L13.8186 10.7363C13.7061 10.3838 13.5223 10.1025 13.2673 9.8925C13.0123 9.675 12.6636 9.56625 12.2211 9.56625C11.6661 9.56625 11.2236 9.75375 10.8936 10.1288C10.5711 10.5038 10.4098 11.0288 10.4098 11.7038V12.9412C10.4098 13.6238 10.5711 14.1488 10.8936 14.5163C11.2236 14.8763 11.6661 15.0562 12.2211 15.0562C12.6636 15.0562 13.0236 14.9363 13.3011 14.6962C13.5861 14.4563 13.7923 14.16 13.9198 13.8075L15.1236 14.5163C14.8386 15.1013 14.4598 15.5588 13.9873 15.8888C13.5148 16.2113 12.9261 16.3725 12.2211 16.3725Z" fill="#F2ECFF"/>
</svg>
