<svg width="24" height="24" viewBox="0 0 24 24" fill="none" xmlns="http://www.w3.org/2000/svg">
<circle cx="12" cy="12" r="12" fill="#9A95A4"/>
<path d="M9 8.25H11.8575C12.3675 8.25 12.8288 8.3325 13.2413 8.4975C13.6613 8.6625 14.0175 8.91 14.31 9.24C14.61 9.5625 14.8388 9.97125 14.9963 10.4662C15.1613 10.9538 15.2438 11.5238 15.2438 12.1763C15.2438 12.8288 15.1613 13.4025 14.9963 13.8975C14.8388 14.385 14.61 14.7937 14.31 15.1237C14.0175 15.4462 13.6613 15.69 13.2413 15.855C12.8288 16.02 12.3675 16.1025 11.8575 16.1025H9V8.25ZM11.8575 14.7863C12.4125 14.7863 12.8513 14.625 13.1737 14.3025C13.5037 13.9725 13.6687 13.47 13.6687 12.795V11.5575C13.6687 10.8825 13.5037 10.3837 13.1737 10.0612C12.8513 9.73125 12.4125 9.56625 11.8575 9.56625H10.485V14.7863H11.8575Z" fill="#F5F1FF"/>
</svg>
