<svg width="24" height="24" viewBox="0 0 24 24" fill="none" xmlns="http://www.w3.org/2000/svg">
<path fill-rule="evenodd" clip-rule="evenodd" d="M12 0C5.37225 0 0 5.37225 0 12C0 18.6278 5.37225 24 12 24C18.6285 24 24 18.6278 24 12C24 5.37225 18.6285 0 12 0Z" fill="#1F51F6"/>
<path d="M5.8973 15.09C5.5823 15.09 5.2948 15.0425 5.0348 14.9475C4.7798 14.8525 4.5598 14.7 4.3748 14.49C4.1948 14.28 4.0523 14.005 3.9473 13.665C3.8473 13.325 3.7973 12.91 3.7973 12.42C3.7973 11.93 3.8473 11.5125 3.9473 11.1675C4.0523 10.8175 4.1948 10.5325 4.3748 10.3125C4.5598 10.0925 4.7798 9.93249 5.0348 9.83249C5.2948 9.72749 5.5823 9.67499 5.8973 9.67499C6.3673 9.67499 6.7373 9.77749 7.0073 9.98249C7.2823 10.1825 7.5073 10.4875 7.6823 10.8975L6.7523 11.3775C6.7223 11.2675 6.6873 11.165 6.6473 11.07C6.6123 10.975 6.5623 10.895 6.4973 10.83C6.4323 10.765 6.3498 10.715 6.2498 10.68C6.1548 10.64 6.0373 10.62 5.8973 10.62C5.5973 10.62 5.3623 10.71 5.1923 10.89C5.0223 11.07 4.9373 11.34 4.9373 11.7V13.065C4.9373 13.425 5.0223 13.695 5.1923 13.875C5.3623 14.055 5.5973 14.145 5.8973 14.145C6.0373 14.145 6.1573 14.125 6.2573 14.085C6.3623 14.04 6.4498 13.9825 6.5198 13.9125C6.5898 13.8375 6.6473 13.7525 6.6923 13.6575C6.7373 13.5575 6.7773 13.45 6.8123 13.335L7.6973 13.845C7.6073 14.04 7.5073 14.215 7.3973 14.37C7.2873 14.525 7.1598 14.6575 7.0148 14.7675C6.8748 14.8725 6.7123 14.9525 6.5273 15.0075C6.3423 15.0625 6.1323 15.09 5.8973 15.09Z" fill="#F5F1FF"/>
<path d="M10.24 15.09C9.92504 15.09 9.64004 15.0425 9.38504 14.9475C9.13004 14.8475 8.91254 14.69 8.73254 14.475C8.55254 14.255 8.41254 13.975 8.31254 13.635C8.21254 13.29 8.16254 12.8725 8.16254 12.3825C8.16254 11.8925 8.21254 11.4775 8.31254 11.1375C8.41254 10.7925 8.55254 10.5125 8.73254 10.2975C8.91254 10.0775 9.13004 9.91999 9.38504 9.82499C9.64004 9.72499 9.92504 9.67499 10.24 9.67499C10.555 9.67499 10.84 9.72499 11.095 9.82499C11.35 9.91999 11.5675 10.0775 11.7475 10.2975C11.9275 10.5125 12.0675 10.7925 12.1675 11.1375C12.2675 11.4775 12.3175 11.8925 12.3175 12.3825C12.3175 12.8725 12.2675 13.29 12.1675 13.635C12.0675 13.975 11.9275 14.255 11.7475 14.475C11.5675 14.69 11.35 14.8475 11.095 14.9475C10.84 15.0425 10.555 15.09 10.24 15.09ZM10.24 14.145C10.54 14.145 10.77 14.055 10.93 13.875C11.095 13.695 11.1775 13.425 11.1775 13.065V11.7C11.1775 11.34 11.095 11.07 10.93 10.89C10.77 10.71 10.54 10.62 10.24 10.62C9.94004 10.62 9.70754 10.71 9.54254 10.89C9.38254 11.07 9.30254 11.34 9.30254 11.7V13.065C9.30254 13.425 9.38254 13.695 9.54254 13.875C9.70754 14.055 9.94004 14.145 10.24 14.145Z" fill="#F5F1FF"/>
<path d="M12.982 15V14.1525H13.597V10.6125H12.982V9.76499H15.2845V10.6125H14.6695V14.1525H15.2845V15H12.982Z" fill="#F5F1FF"/>
<path d="M17.5305 12.195L17.2005 11.3625H17.0805L17.1405 12.24V15H16.1355V9.76499H17.3055L18.6255 12.57L18.9555 13.4025H19.0755L19.0155 12.525V9.76499H20.0205V15H18.8505L17.5305 12.195Z" fill="#F5F1FF"/>
</svg>
