<svg width="24" height="24" viewBox="0 0 24 24" fill="none" xmlns="http://www.w3.org/2000/svg">
<path fill-rule="evenodd" clip-rule="evenodd" d="M12 0C5.37225 0 0 5.37225 0 12C0 18.6278 5.37225 24 12 24C18.6285 24 24 18.6278 24 12C24 5.37225 18.6285 0 12 0Z" fill="#000DCA"/>
<path d="M4.3313 14.25V9.53852H6.3698C6.7928 9.53852 7.11455 9.67352 7.33505 9.94352C7.55555 10.2135 7.6658 10.5735 7.6658 11.0235C7.6658 11.4735 7.55555 11.8335 7.33505 12.1035C7.11455 12.3735 6.7928 12.5085 6.3698 12.5085H5.29655V14.25H4.3313ZM5.29655 11.6648H6.2483C6.3788 11.6648 6.48005 11.631 6.55205 11.5635C6.62855 11.496 6.6668 11.3835 6.6668 11.226V10.821C6.6668 10.6635 6.62855 10.551 6.55205 10.4835C6.48005 10.416 6.3788 10.3823 6.2483 10.3823H5.29655V11.6648Z" fill="#F5F1FF"/>
<path d="M8.3457 9.53852H9.99945C10.2875 9.53852 10.544 9.58352 10.769 9.67352C10.9985 9.75902 11.192 9.89627 11.3495 10.0853C11.507 10.2743 11.6285 10.5173 11.714 10.8143C11.7995 11.1113 11.8422 11.4713 11.8422 11.8943C11.8422 12.3173 11.7995 12.6773 11.714 12.9743C11.6285 13.2713 11.507 13.5143 11.3495 13.7033C11.192 13.8923 10.9985 14.0318 10.769 14.1218C10.544 14.2073 10.2875 14.25 9.99945 14.25H8.3457V9.53852ZM9.99945 13.4063C10.544 13.4063 10.8162 13.0913 10.8162 12.4613V11.3273C10.8162 10.6973 10.544 10.3823 9.99945 10.3823H9.31095V13.4063H9.99945Z" fill="#F5F1FF"/>
<path d="M12.5974 14.25V9.53852H14.6359C15.0589 9.53852 15.3807 9.67352 15.6012 9.94352C15.8217 10.2135 15.9319 10.5735 15.9319 11.0235C15.9319 11.4735 15.8217 11.8335 15.6012 12.1035C15.3807 12.3735 15.0589 12.5085 14.6359 12.5085H13.5627V14.25H12.5974ZM13.5627 11.6648H14.5144C14.6449 11.6648 14.7462 11.631 14.8182 11.5635C14.8947 11.496 14.9329 11.3835 14.9329 11.226V10.821C14.9329 10.6635 14.8947 10.551 14.8182 10.4835C14.7462 10.416 14.6449 10.3823 14.5144 10.3823H13.5627V11.6648Z" fill="#F5F1FF"/>
<path d="M18.3398 14.331C18.0563 14.331 17.7976 14.2883 17.5636 14.2028C17.3341 14.1173 17.1361 13.98 16.9696 13.791C16.8076 13.602 16.6793 13.3545 16.5848 13.0485C16.4948 12.7425 16.4498 12.369 16.4498 11.928C16.4498 11.487 16.4948 11.1113 16.5848 10.8008C16.6793 10.4858 16.8076 10.2293 16.9696 10.0313C17.1361 9.83327 17.3341 9.68927 17.5636 9.59927C17.7976 9.50477 18.0563 9.45752 18.3398 9.45752C18.7628 9.45752 19.0958 9.54977 19.3388 9.73427C19.5863 9.91427 19.7888 10.1888 19.9463 10.5578L19.1093 10.9898C19.0823 10.8908 19.0508 10.7985 19.0148 10.713C18.9833 10.6275 18.9383 10.5555 18.8798 10.497C18.8213 10.4385 18.7471 10.3935 18.6571 10.362C18.5716 10.326 18.4658 10.308 18.3398 10.308C18.0698 10.308 17.8583 10.389 17.7053 10.551C17.5523 10.713 17.4758 10.956 17.4758 11.28V12.5085C17.4758 12.8325 17.5523 13.0755 17.7053 13.2375C17.8583 13.3995 18.0698 13.4805 18.3398 13.4805C18.4658 13.4805 18.5738 13.4625 18.6638 13.4265C18.7583 13.386 18.8371 13.3343 18.9001 13.2713C18.9631 13.2038 19.0148 13.1273 19.0553 13.0418C19.0958 12.9518 19.1318 12.855 19.1633 12.7515L19.9598 13.2105C19.8788 13.386 19.7888 13.5435 19.6898 13.683C19.5908 13.8225 19.4761 13.9418 19.3456 14.0408C19.2196 14.1353 19.0733 14.2073 18.9068 14.2568C18.7403 14.3063 18.5513 14.331 18.3398 14.331Z" fill="#F5F1FF"/>
</svg>
