<svg width="24" height="24" viewBox="0 0 24 24" fill="none" xmlns="http://www.w3.org/2000/svg">
<path fill-rule="evenodd" clip-rule="evenodd" d="M12 0C5.37225 0 0 5.37225 0 12C0 18.6278 5.37225 24 12 24C18.6285 24 24 18.6278 24 12C24 5.37225 18.6285 0 12 0Z" fill="#000DCA"/>
<path d="M7.7367 16.452H6.9777C6.6147 16.452 6.3562 16.3695 6.2022 16.2045C6.0537 16.0395 5.97945 15.8003 5.97945 15.4868V15.066C5.69895 15.0275 5.4432 14.9423 5.2122 14.8103C4.9867 14.6728 4.7942 14.4858 4.6347 14.2493C4.4807 14.0073 4.3597 13.7103 4.2717 13.3583C4.1892 13.0063 4.14795 12.5938 4.14795 12.1208C4.14795 11.5928 4.2002 11.1418 4.3047 10.7678C4.4147 10.3883 4.56595 10.0803 4.75845 9.84377C4.95645 9.60177 5.19295 9.42577 5.46795 9.31577C5.74845 9.20027 6.06195 9.14252 6.40845 9.14252C6.75495 9.14252 7.0657 9.20027 7.3407 9.31577C7.6212 9.42577 7.8577 9.60177 8.0502 9.84377C8.2482 10.0803 8.39945 10.3883 8.50395 10.7678C8.61395 11.1418 8.66895 11.5928 8.66895 12.1208C8.66895 12.5828 8.6277 12.9843 8.5452 13.3253C8.4682 13.6663 8.35545 13.9578 8.20695 14.1998C8.05845 14.4363 7.8742 14.626 7.6542 14.769C7.4397 14.9065 7.1977 15 6.9282 15.0495V15.6023H7.7367V16.452ZM6.40845 14.1915C6.78245 14.1915 7.0712 14.076 7.2747 13.845C7.4782 13.6085 7.57995 13.273 7.57995 12.8385V11.403C7.57995 10.9685 7.4782 10.6358 7.2747 10.4048C7.0712 10.1683 6.78245 10.05 6.40845 10.05C6.03445 10.05 5.7457 10.1683 5.5422 10.4048C5.3387 10.6358 5.23695 10.9685 5.23695 11.403V12.8385C5.23695 13.273 5.3387 13.6085 5.5422 13.845C5.7457 14.076 6.03445 14.1915 6.40845 14.1915Z" fill="#F5F1FF"/>
<path d="M13.3299 16.452H12.5709C12.2079 16.452 11.9494 16.3695 11.7954 16.2045C11.6469 16.0395 11.5727 15.8003 11.5727 15.4868V15.066C11.2922 15.0275 11.0364 14.9423 10.8054 14.8103C10.5799 14.6728 10.3874 14.4858 10.2279 14.2493C10.0739 14.0073 9.95291 13.7103 9.86491 13.3583C9.78241 13.0063 9.74116 12.5938 9.74116 12.1208C9.74116 11.5928 9.79341 11.1418 9.89791 10.7678C10.0079 10.3883 10.1592 10.0803 10.3517 9.84377C10.5497 9.60177 10.7862 9.42577 11.0612 9.31577C11.3417 9.20027 11.6552 9.14252 12.0017 9.14252C12.3482 9.14252 12.6589 9.20027 12.9339 9.31577C13.2144 9.42577 13.4509 9.60177 13.6434 9.84377C13.8414 10.0803 13.9927 10.3883 14.0972 10.7678C14.2072 11.1418 14.2622 11.5928 14.2622 12.1208C14.2622 12.5828 14.2209 12.9843 14.1384 13.3253C14.0614 13.6663 13.9487 13.9578 13.8002 14.1998C13.6517 14.4363 13.4674 14.626 13.2474 14.769C13.0329 14.9065 12.7909 15 12.5214 15.0495V15.6023H13.3299V16.452ZM12.0017 14.1915C12.3757 14.1915 12.6644 14.076 12.8679 13.845C13.0714 13.6085 13.1732 13.273 13.1732 12.8385V11.403C13.1732 10.9685 13.0714 10.6358 12.8679 10.4048C12.6644 10.1683 12.3757 10.05 12.0017 10.05C11.6277 10.05 11.3389 10.1683 11.1354 10.4048C10.9319 10.6358 10.8302 10.9685 10.8302 11.403V12.8385C10.8302 13.273 10.9319 13.6085 11.1354 13.845C11.3389 14.076 11.6277 14.1915 12.0017 14.1915Z" fill="#F5F1FF"/>
<path d="M18.9231 16.452H18.1641C17.8011 16.452 17.5426 16.3695 17.3886 16.2045C17.2401 16.0395 17.1659 15.8003 17.1659 15.4868V15.066C16.8854 15.0275 16.6296 14.9423 16.3986 14.8103C16.1731 14.6728 15.9806 14.4858 15.8211 14.2493C15.6671 14.0073 15.5461 13.7103 15.4581 13.3583C15.3756 13.0063 15.3344 12.5938 15.3344 12.1208C15.3344 11.5928 15.3866 11.1418 15.4911 10.7678C15.6011 10.3883 15.7524 10.0803 15.9449 9.84377C16.1429 9.60177 16.3794 9.42577 16.6544 9.31577C16.9349 9.20027 17.2484 9.14252 17.5949 9.14252C17.9414 9.14252 18.2521 9.20027 18.5271 9.31577C18.8076 9.42577 19.0441 9.60177 19.2366 9.84377C19.4346 10.0803 19.5859 10.3883 19.6904 10.7678C19.8004 11.1418 19.8554 11.5928 19.8554 12.1208C19.8554 12.5828 19.8141 12.9843 19.7316 13.3253C19.6546 13.6663 19.5419 13.9578 19.3934 14.1998C19.2449 14.4363 19.0606 14.626 18.8406 14.769C18.6261 14.9065 18.3841 15 18.1146 15.0495V15.6023H18.9231V16.452ZM17.5949 14.1915C17.9689 14.1915 18.2576 14.076 18.4611 13.845C18.6646 13.6085 18.7664 13.273 18.7664 12.8385V11.403C18.7664 10.9685 18.6646 10.6358 18.4611 10.4048C18.2576 10.1683 17.9689 10.05 17.5949 10.05C17.2209 10.05 16.9321 10.1683 16.7286 10.4048C16.5251 10.6358 16.4234 10.9685 16.4234 11.403V12.8385C16.4234 13.273 16.5251 13.6085 16.7286 13.845C16.9321 14.076 17.2209 14.1915 17.5949 14.1915Z" fill="#F5F1FF"/>
</svg>
