<svg width="24" height="24" viewBox="0 0 24 24" fill="none" xmlns="http://www.w3.org/2000/svg">
<g clip-path="url(#clip0_104_4244)">
<path d="M23.6408 14.9029C22.0379 21.3315 15.5261 25.2438 9.09602 23.6407C2.66858 22.038 -1.24421 15.5266 0.359461 9.09838C1.96163 2.66907 8.47345 -1.24364 14.9016 0.359095C21.3313 1.96183 25.2437 8.47401 23.6408 14.9029Z" fill="#F7931A"/>
<mask id="mask0_104_4244" style="mask-type:luminance" maskUnits="userSpaceOnUse" x="0" y="0" width="24" height="24">
<path d="M23.6408 14.9029C22.0379 21.3315 15.5261 25.2438 9.09602 23.6407C2.66858 22.038 -1.24421 15.5266 0.359461 9.09838C1.96163 2.66907 8.47345 -1.24364 14.9016 0.359095C21.3313 1.96183 25.2437 8.47401 23.6408 14.9029Z" fill="white"/>
</mask>
<g mask="url(#mask0_104_4244)">
<path fill-rule="evenodd" clip-rule="evenodd" d="M17.2206 10.5303C17.4547 8.95414 16.2633 8.10684 14.6343 7.54161L15.1627 5.40652L13.8725 5.08263L13.358 7.16145C13.0188 7.07631 12.6705 6.99599 12.3243 6.91641L12.8425 4.82389L11.553 4.5L11.0242 6.63434C10.7434 6.56994 10.4678 6.50627 10.2003 6.43927L10.2018 6.43261L8.42242 5.98508L8.0792 7.37318C8.0792 7.37318 9.03648 7.59417 9.01627 7.60786C9.53882 7.73927 9.63326 8.08759 9.61746 8.36373L9.01553 10.7961C9.05154 10.8053 9.09821 10.8186 9.14966 10.8394L9.10593 10.8284L9.10589 10.8284C9.07598 10.8208 9.04498 10.813 9.01333 10.8053L8.16959 14.2126C8.10565 14.3725 7.9436 14.6124 7.57832 14.5213C7.59118 14.5402 6.64052 14.2856 6.64052 14.2856L6 15.7732L7.67901 16.1948C7.86648 16.2422 8.0517 16.2908 8.23498 16.339L8.23512 16.339L8.23517 16.339C8.35721 16.3711 8.47839 16.4029 8.59881 16.434L8.06486 18.5935L9.35361 18.9174L9.88241 16.7808C10.2345 16.877 10.5762 16.9659 10.9106 17.0495L10.3837 19.1761L11.6739 19.5L12.2078 17.3446C14.4079 17.7639 16.0623 17.5948 16.7587 15.5904C17.3198 13.9765 16.7307 13.0455 15.5732 12.4385C16.4162 12.2426 17.0512 11.6841 17.2206 10.5303ZM14.2108 14.8804C13.869 16.2294 11.7188 15.6716 10.7351 15.4165L10.735 15.4165C10.6465 15.3935 10.5675 15.373 10.5 15.3565L11.1621 12.75C11.2442 12.7701 11.3446 12.7922 11.4583 12.8173L11.4583 12.8173C12.4758 13.0415 14.5611 13.501 14.2108 14.8804ZM11.4849 10.9487C12.4591 11.1889 14.5842 11.7129 14.9544 10.3428C15.3324 8.94129 13.267 8.51883 12.2583 8.31251C12.1448 8.2893 12.0447 8.26882 11.963 8.25L11.25 10.8918C11.3173 10.9074 11.3964 10.9268 11.4849 10.9487Z" fill="#F5F1FF"/>
</g>
</g>
<defs>
<clipPath id="clip0_104_4244">
<rect width="24" height="24" fill="white"/>
</clipPath>
</defs>
</svg>
