<svg width="24" height="24" viewBox="0 0 24 24" fill="none" xmlns="http://www.w3.org/2000/svg">
<path fill-rule="evenodd" clip-rule="evenodd" d="M12 0C5.37225 0 0 5.37225 0 12C0 18.6278 5.37225 24 12 24C18.6285 24 24 18.6278 24 12C24 5.37225 18.6285 0 12 0Z" fill="#D53933"/>
<path d="M6.9147 10.3823V14.25H5.94945V10.3823H4.8222V9.53852H8.04195V10.3823H6.9147Z" fill="#F5F1FF"/>
<path d="M9.96992 14.331C9.26342 14.331 8.70992 14.0835 8.30942 13.5885L8.93042 12.9675C9.20042 13.314 9.55367 13.4873 9.99017 13.4873C10.4402 13.4873 10.6652 13.2893 10.6652 12.8933C10.6652 12.7313 10.6247 12.6053 10.5437 12.5153C10.4627 12.4253 10.3367 12.3623 10.1657 12.3263L9.73367 12.2453C9.29717 12.1643 8.97542 12.0135 8.76842 11.793C8.56592 11.568 8.46467 11.2575 8.46467 10.8615C8.46467 10.4025 8.59967 10.0538 8.86967 9.81527C9.13967 9.57677 9.53567 9.45752 10.0577 9.45752C10.7237 9.45752 11.2299 9.67352 11.5764 10.1055L10.9554 10.7265C10.8384 10.5825 10.7057 10.4768 10.5572 10.4093C10.4132 10.3373 10.2422 10.3013 10.0442 10.3013C9.82817 10.3013 9.67067 10.3418 9.57167 10.4228C9.47717 10.5038 9.42992 10.6343 9.42992 10.8143C9.42992 10.9718 9.46592 11.091 9.53792 11.172C9.61442 11.253 9.73592 11.3115 9.90242 11.3475L10.3344 11.4353C10.5639 11.4848 10.7597 11.5455 10.9217 11.6175C11.0882 11.685 11.2232 11.7728 11.3267 11.8808C11.4347 11.9888 11.5112 12.117 11.5562 12.2655C11.6057 12.414 11.6304 12.5873 11.6304 12.7853C11.6304 13.2893 11.4887 13.674 11.2052 13.9395C10.9217 14.2005 10.5099 14.331 9.96992 14.331Z" fill="#F5F1FF"/>
<path d="M12.3437 14.25V9.53852H13.3089V13.4063H14.9087V14.25H12.3437Z" fill="#F5F1FF"/>
<path d="M18.2587 14.25L17.9685 13.0958H16.524L16.2337 14.25H15.309L16.6455 9.53852H17.874L19.2105 14.25H18.2587ZM17.442 11.2328L17.2935 10.416H17.1855L17.037 11.2328L16.7602 12.3195H17.7322L17.442 11.2328Z" fill="#F5F1FF"/>
</svg>
