<svg width="24" height="24" viewBox="0 0 24 24" fill="none" xmlns="http://www.w3.org/2000/svg">
<path d="M24 12C24 18.627 18.627 24 12 24C5.373 24 0 18.627 0 12C0 5.373 5.373 0 12 0C18.627 0 24 5.373 24 12Z" fill="white"/>
<path d="M24 12C24 18.627 18.627 24 12 24C5.373 24 0 18.627 0 12C0 5.373 5.373 0 12 0C18.627 0 24 5.373 24 12Z" fill="#FF00AF" fill-opacity="0.2"/>
<path fill-rule="evenodd" clip-rule="evenodd" d="M11.9779 2.77002L13.9122 3.28832L12.972 6.79575L16.4802 7.73632L15.9619 9.67058L11.8838 8.57781L10.5129 9.36932C10.035 9.64496 9.87143 10.2553 10.1479 10.7337C10.4236 11.2116 11.0339 11.3752 11.5123 11.0987C12.948 10.2706 14.7832 10.7624 15.6119 12.1977C16.4132 13.5869 15.9786 15.35 14.6492 16.2147L14.5132 16.2981L12.9701 17.1891L11.9088 21.1502L9.97456 20.632L10.8825 17.2388L7.4917 16.3313L8.00951 14.3969L11.9666 15.4562L13.5113 14.5643C13.9893 14.2878 14.1531 13.6764 13.8775 13.1987C13.6019 12.7213 12.9909 12.5576 12.5136 12.8329C11.0776 13.6627 9.2418 13.1707 8.41368 11.735C7.61069 10.3453 8.04558 8.58122 9.37596 7.71816L9.51197 7.6349L10.8871 6.84096L11.9779 2.77002Z" fill="#FF00AF"/>
</svg>
