<svg width="24" height="24" viewBox="0 0 24 24" fill="none" xmlns="http://www.w3.org/2000/svg">
<path d="M12 23.9999C14.3733 23.9999 16.6934 23.2962 18.6668 21.9775C20.6402 20.659 22.1783 18.7849 23.0864 16.5922C23.9948 14.3995 24.2324 11.9867 23.7694 9.65889C23.3063 7.33113 22.1635 5.19295 20.4852 3.51471C18.807 1.83649 16.6688 0.693602 14.3411 0.230581C12.0133 -0.23244 9.60049 0.00519909 7.40777 0.913448C5.21508 1.8217 3.34094 3.35976 2.02236 5.33316C0.703785 7.30653 0 9.6266 0 12C0 15.1826 1.26428 18.2348 3.51471 20.4852C5.76515 22.7357 8.81738 23.9999 12 23.9999Z" fill="black"/>
<path d="M16.3907 6.88928H18.1949L14.4428 10.6328C13.7907 11.2842 12.9067 11.6501 11.985 11.6501C11.0632 11.6501 10.1792 11.2842 9.52711 10.6328L5.78569 6.88928H7.58783L10.4378 9.73284C10.8509 10.1454 11.4108 10.3772 11.9946 10.3772C12.5784 10.3772 13.1384 10.1454 13.5514 9.73284L16.3907 6.88928Z" fill="#F5F1FF"/>
<path d="M7.57926 17.3014H5.78569L9.55068 13.5343C10.2028 12.8829 11.0868 12.517 12.0085 12.517C12.9303 12.517 13.8143 12.8829 14.4664 13.5343L18.2399 17.3014H16.4378L13.5664 14.4343C13.1534 14.0217 12.5934 13.7899 12.0096 13.7899C11.4258 13.7899 10.8659 14.0217 10.4528 14.4343L7.57926 17.3014Z" fill="#F5F1FF"/>
</svg>
