<svg width="24" height="24" viewBox="0 0 24 24" fill="none" xmlns="http://www.w3.org/2000/svg">
<circle cx="12" cy="12" r="12" fill="#8247E5"/>
<path d="M15.8945 9.56339C15.6013 9.39588 15.2244 9.39588 14.8894 9.56339L12.5443 10.9453L10.9529 11.8248L8.64967 13.2067C8.35653 13.3742 7.97963 13.3742 7.64461 13.2067L5.84388 12.1179C5.55073 11.9504 5.34135 11.6154 5.34135 11.2385V9.14461C5.34135 8.80959 5.50886 8.47457 5.84388 8.26518L7.64461 7.21824C7.93775 7.05073 8.31465 7.05073 8.64967 7.21824L10.4504 8.30706C10.7435 8.47457 10.9529 8.80959 10.9529 9.18649V10.5684L12.5443 9.64714V8.2233C12.5443 7.88828 12.3768 7.55326 12.0417 7.34388L8.69155 5.37563C8.39841 5.20812 8.02151 5.20812 7.68649 5.37563L4.25253 7.38575C3.91751 7.55326 3.75 7.88828 3.75 8.2233V12.1598C3.75 12.4948 3.91751 12.8298 4.25253 13.0392L7.64461 15.0075C7.93775 15.175 8.31465 15.175 8.64967 15.0075L10.9529 13.6674L12.5443 12.7461L14.8475 11.406C15.1407 11.2385 15.5176 11.2385 15.8526 11.406L17.6533 12.4529C17.9465 12.6204 18.1559 12.9555 18.1559 13.3324V15.4262C18.1559 15.7613 17.9884 16.0963 17.6533 16.3057L15.8945 17.3526C15.6013 17.5201 15.2244 17.5201 14.8894 17.3526L13.0887 16.3057C12.7955 16.1382 12.5862 15.8031 12.5862 15.4262V14.0862L10.9948 15.0075V16.3894C10.9948 16.7244 11.1623 17.0595 11.4973 17.2689L14.8894 19.2371C15.1826 19.4046 15.5595 19.4046 15.8945 19.2371L19.2866 17.2689C19.5797 17.1013 19.7891 16.7663 19.7891 16.3894V12.4111C19.7891 12.076 19.6216 11.741 19.2866 11.5316L15.8945 9.56339Z" fill="#F5F1FF"/>
</svg>
