<svg width="24" height="24" viewBox="0 0 24 24" fill="none" xmlns="http://www.w3.org/2000/svg">
<path fill-rule="evenodd" clip-rule="evenodd" d="M12 0C5.37225 0 0 5.37225 0 12C0 18.6278 5.37225 24 12 24C18.6285 24 24 18.6278 24 12C24 5.37225 18.6285 0 12 0Z" fill="#4492CD"/>
<path d="M5.14832 15V9.2415H8.60507V10.1408H6.17957V11.6423H8.29982V12.5168H6.17957V14.1008H8.60507V15H5.14832Z" fill="#F5F1FF"/>
<path d="M9.93586 15V9.2415H13.3926V10.1408H10.9671V11.6423H13.0874V12.5168H10.9671V14.1008H13.3926V15H9.93586Z" fill="#F5F1FF"/>
<path d="M18.6257 11.7165L18.6917 10.743H18.5762L18.1967 11.6835L17.1572 13.9028L16.1259 11.6835L15.7464 10.7513H15.6309L15.6969 11.7165V15H14.7234V9.2415H15.8537L16.7117 11.1143L17.1324 12.294H17.2067L17.6274 11.1143L18.4689 9.2415H19.5992V15H18.6257V11.7165Z" fill="#F5F1FF"/>
</svg>
