<svg width="24" height="24" viewBox="0 0 24 24" fill="none" xmlns="http://www.w3.org/2000/svg">
<path fill-rule="evenodd" clip-rule="evenodd" d="M12 0C5.37225 0 0 5.37225 0 12C0 18.6278 5.37225 24 12 24C18.6285 24 24 18.6278 24 12C24 5.37225 18.6285 0 12 0Z" fill="#0C0922"/>
<path d="M6.68681 14.25L6.39656 13.0957H4.95206L4.66181 14.25H3.73706L5.07356 9.5385H6.30206L7.63856 14.25H6.68681ZM5.87006 11.2327L5.72156 10.416H5.61356L5.46506 11.2327L5.18831 12.3195H6.16031L5.87006 11.2327Z" fill="#F5F1FF"/>
<path d="M9.19892 14.25H8.23367V9.5385H10.2722C10.6952 9.5385 11.0169 9.67125 11.2374 9.93675C11.4579 10.2022 11.5682 10.5577 11.5682 11.0032C11.5682 11.3497 11.5029 11.6422 11.3724 11.8807C11.2419 12.1192 11.0484 12.2857 10.7919 12.3802L11.6154 14.25H10.5692L9.84017 12.468H9.19892V14.25ZM10.1507 11.6647C10.2812 11.6647 10.3824 11.6332 10.4544 11.5702C10.5309 11.5027 10.5692 11.388 10.5692 11.226V10.821C10.5692 10.659 10.5309 10.5465 10.4544 10.4835C10.3824 10.416 10.2812 10.3822 10.1507 10.3822H9.19892V11.6647H10.1507Z" fill="#F5F1FF"/>
<path d="M13.8655 12.1642L13.3188 12.9067V14.25H12.3535V9.5385H13.3188V11.064L13.2783 11.8132H13.3863L13.852 11.064L14.878 9.5385H15.9715L14.5473 11.5027L16.093 14.25H14.959L13.8655 12.1642Z" fill="#F5F1FF"/>
<path d="M18.1173 12.1642L17.5705 12.9067V14.25H16.6052V9.5385H17.5705V11.064L17.53 11.8132H17.638L18.1038 11.064L19.1298 9.5385H20.2233L18.799 11.5027L20.3447 14.25H19.2108L18.1173 12.1642Z" fill="#F5F1FF"/>
</svg>
