<svg width="24" height="24" viewBox="0 0 24 24" fill="none" xmlns="http://www.w3.org/2000/svg">
<path fill-rule="evenodd" clip-rule="evenodd" d="M12 0C5.37225 0 0 5.37225 0 12C0 18.6278 5.37225 24 12 24C18.6285 24 24 18.6278 24 12C24 5.37225 18.6285 0 12 0Z" fill="#000DCA"/>
<path d="M4.3313 14.25V9.53849H6.3698C6.7928 9.53849 7.11455 9.67349 7.33505 9.94349C7.55555 10.2135 7.6658 10.5735 7.6658 11.0235C7.6658 11.4735 7.55555 11.8335 7.33505 12.1035C7.11455 12.3735 6.7928 12.5085 6.3698 12.5085H5.29655V14.25H4.3313ZM5.29655 11.6647H6.2483C6.3788 11.6647 6.48005 11.631 6.55205 11.5635C6.62855 11.496 6.6668 11.3835 6.6668 11.226V10.821C6.6668 10.6635 6.62855 10.551 6.55205 10.4835C6.48005 10.416 6.3788 10.3822 6.2483 10.3822H5.29655V11.6647Z" fill="#F5F1FF"/>
<path d="M8.3457 9.53849H9.99945C10.2875 9.53849 10.544 9.58349 10.769 9.67349C10.9985 9.75899 11.192 9.89624 11.3495 10.0852C11.507 10.2742 11.6285 10.5172 11.714 10.8142C11.7995 11.1112 11.8422 11.4712 11.8422 11.8942C11.8422 12.3172 11.7995 12.6772 11.714 12.9742C11.6285 13.2712 11.507 13.5142 11.3495 13.7032C11.192 13.8922 10.9985 14.0317 10.769 14.1217C10.544 14.2072 10.2875 14.25 9.99945 14.25H8.3457V9.53849ZM9.99945 13.4062C10.544 13.4062 10.8162 13.0912 10.8162 12.4612V11.3272C10.8162 10.6972 10.544 10.3822 9.99945 10.3822H9.31095V13.4062H9.99945Z" fill="#F5F1FF"/>
<path d="M12.5974 14.25V9.53849H14.6359C15.0589 9.53849 15.3807 9.67349 15.6012 9.94349C15.8217 10.2135 15.9319 10.5735 15.9319 11.0235C15.9319 11.4735 15.8217 11.8335 15.6012 12.1035C15.3807 12.3735 15.0589 12.5085 14.6359 12.5085H13.5627V14.25H12.5974ZM13.5627 11.6647H14.5144C14.6449 11.6647 14.7462 11.631 14.8182 11.5635C14.8947 11.496 14.9329 11.3835 14.9329 11.226V10.821C14.9329 10.6635 14.8947 10.551 14.8182 10.4835C14.7462 10.416 14.6449 10.3822 14.5144 10.3822H13.5627V11.6647Z" fill="#F5F1FF"/>
<path d="M18.3398 14.331C18.0563 14.331 17.7976 14.2882 17.5636 14.2027C17.3341 14.1172 17.1361 13.98 16.9696 13.791C16.8076 13.602 16.6793 13.3545 16.5848 13.0485C16.4948 12.7425 16.4498 12.369 16.4498 11.928C16.4498 11.487 16.4948 11.1112 16.5848 10.8007C16.6793 10.4857 16.8076 10.2292 16.9696 10.0312C17.1361 9.83324 17.3341 9.68924 17.5636 9.59924C17.7976 9.50474 18.0563 9.45749 18.3398 9.45749C18.7628 9.45749 19.0958 9.54974 19.3388 9.73424C19.5863 9.91424 19.7888 10.1887 19.9463 10.5577L19.1093 10.9897C19.0823 10.8907 19.0508 10.7985 19.0148 10.713C18.9833 10.6275 18.9383 10.5555 18.8798 10.497C18.8213 10.4385 18.7471 10.3935 18.6571 10.362C18.5716 10.326 18.4658 10.308 18.3398 10.308C18.0698 10.308 17.8583 10.389 17.7053 10.551C17.5523 10.713 17.4758 10.956 17.4758 11.28V12.5085C17.4758 12.8325 17.5523 13.0755 17.7053 13.2375C17.8583 13.3995 18.0698 13.4805 18.3398 13.4805C18.4658 13.4805 18.5738 13.4625 18.6638 13.4265C18.7583 13.386 18.8371 13.3342 18.9001 13.2712C18.9631 13.2037 19.0148 13.1272 19.0553 13.0417C19.0958 12.9517 19.1318 12.855 19.1633 12.7515L19.9598 13.2105C19.8788 13.386 19.7888 13.5435 19.6898 13.683C19.5908 13.8225 19.4761 13.9417 19.3456 14.0407C19.2196 14.1352 19.0733 14.2072 18.9068 14.2567C18.7403 14.3062 18.5513 14.331 18.3398 14.331Z" fill="#F5F1FF"/>
</svg>
