<svg width="24" height="24" viewBox="0 0 24 24" fill="none" xmlns="http://www.w3.org/2000/svg">
<path fill-rule="evenodd" clip-rule="evenodd" d="M12 0C5.37225 0 0 5.37225 0 12C0 18.6278 5.37225 24 12 24C18.6285 24 24 18.6278 24 12C24 5.37225 18.6285 0 12 0Z" fill="#8A2423"/>
<path d="M5.76834 15L4.07709 9.24149H5.14134L6.11484 12.8055L6.32934 14.076H6.44484L6.65934 12.8055L7.62459 9.24149H8.65584L6.98934 15H5.76834Z" fill="#F5F1FF"/>
<path d="M11.1009 11.7247L10.6967 10.7265H10.5812L10.6472 11.7577V15H9.67365V9.24149H10.8204L12.4127 12.5167L12.8169 13.515H12.9324L12.8664 12.4837V9.24149H13.8399V15H12.6932L11.1009 11.7247Z" fill="#F5F1FF"/>
<path d="M18.7217 16.452H17.9627C17.5997 16.452 17.3412 16.3695 17.1872 16.2045C17.0387 16.0395 16.9644 15.8002 16.9644 15.4867V15.066C16.6839 15.0275 16.4282 14.9422 16.1972 14.8102C15.9717 14.6727 15.7792 14.4857 15.6197 14.2492C15.4657 14.0072 15.3447 13.7102 15.2567 13.3582C15.1742 13.0062 15.1329 12.5937 15.1329 12.1207C15.1329 11.5927 15.1852 11.1417 15.2897 10.7677C15.3997 10.3882 15.5509 10.0802 15.7434 9.84374C15.9414 9.60174 16.1779 9.42574 16.4529 9.31574C16.7334 9.20024 17.0469 9.14249 17.3934 9.14249C17.7399 9.14249 18.0507 9.20024 18.3257 9.31574C18.6062 9.42574 18.8427 9.60174 19.0352 9.84374C19.2332 10.0802 19.3844 10.3882 19.4889 10.7677C19.5989 11.1417 19.6539 11.5927 19.6539 12.1207C19.6539 12.5827 19.6127 12.9842 19.5302 13.3252C19.4532 13.6662 19.3404 13.9577 19.1919 14.1997C19.0434 14.4362 18.8592 14.626 18.6392 14.769C18.4247 14.9065 18.1827 15 17.9132 15.0495V15.6022H18.7217V16.452ZM17.3934 14.1915C17.7674 14.1915 18.0562 14.076 18.2597 13.845C18.4632 13.6085 18.5649 13.273 18.5649 12.8385V11.403C18.5649 10.9685 18.4632 10.6357 18.2597 10.4047C18.0562 10.1682 17.7674 10.05 17.3934 10.05C17.0194 10.05 16.7307 10.1682 16.5272 10.4047C16.3237 10.6357 16.2219 10.9685 16.2219 11.403V12.8385C16.2219 13.273 16.3237 13.6085 16.5272 13.845C16.7307 14.076 17.0194 14.1915 17.3934 14.1915Z" fill="#F5F1FF"/>
</svg>
