<svg width="24" height="24" viewBox="0 0 24 24" fill="none" xmlns="http://www.w3.org/2000/svg">
<path fill-rule="evenodd" clip-rule="evenodd" d="M12 0C5.37225 0 0 5.37225 0 12C0 18.6278 5.37225 24 12 24C18.6285 24 24 18.6278 24 12C24 5.37225 18.6285 0 12 0Z" fill="black"/>
<path d="M5.24097 14.25V9.53851H7.27947C7.70247 9.53851 8.02422 9.67351 8.24472 9.94351C8.46522 10.2135 8.57547 10.5735 8.57547 11.0235C8.57547 11.4735 8.46522 11.8335 8.24472 12.1035C8.02422 12.3735 7.70247 12.5085 7.27947 12.5085H6.20622V14.25H5.24097ZM6.20622 11.6648H7.15797C7.28847 11.6648 7.38972 11.631 7.46172 11.5635C7.53822 11.496 7.57647 11.3835 7.57647 11.226V10.821C7.57647 10.6635 7.53822 10.551 7.46172 10.4835C7.38972 10.416 7.28847 10.3823 7.15797 10.3823H6.20622V11.6648Z" fill="#F5F1FF"/>
<path d="M9.25537 14.25V9.53851H10.2206V13.4063H11.8204V14.25H9.25537Z" fill="#F5F1FF"/>
<path d="M13.7998 10.3823V14.25H12.8346V10.3823H11.7073V9.53851H14.9271V10.3823H13.7998Z" fill="#F5F1FF"/>
<path d="M16.5224 14.25H15.5571V9.53851H17.5956C18.0186 9.53851 18.3404 9.67126 18.5609 9.93676C18.7814 10.2023 18.8916 10.5578 18.8916 11.0033C18.8916 11.3498 18.8264 11.6423 18.6959 11.8808C18.5654 12.1193 18.3719 12.2858 18.1154 12.3803L18.9389 14.25H17.8926L17.1636 12.468H16.5224V14.25ZM17.4741 11.6648C17.6046 11.6648 17.7059 11.6333 17.7779 11.5703C17.8544 11.5028 17.8926 11.388 17.8926 11.226V10.821C17.8926 10.659 17.8544 10.5465 17.7779 10.4835C17.7059 10.416 17.6046 10.3823 17.4741 10.3823H16.5224V11.6648H17.4741Z" fill="#F5F1FF"/>
</svg>
