<svg width="24" height="24" viewBox="0 0 24 24" fill="none" xmlns="http://www.w3.org/2000/svg">
<path fill-rule="evenodd" clip-rule="evenodd" d="M12 0C5.37225 0 0 5.37225 0 12C0 18.6278 5.37225 24 12 24C18.6285 24 24 18.6278 24 12C24 5.37225 18.6285 0 12 0Z" fill="#ED742E"/>
<path d="M4.23901 9.5385H6.33151C6.70951 9.5385 6.98851 9.64875 7.16851 9.86925C7.35301 10.0897 7.44526 10.3822 7.44526 10.7467C7.44526 10.9447 7.42051 11.109 7.37101 11.2395C7.32601 11.3655 7.26526 11.4667 7.18876 11.5432C7.11676 11.6152 7.03351 11.6692 6.93901 11.7052C6.84451 11.7367 6.74776 11.7547 6.64876 11.7592V11.8672C6.75676 11.8672 6.86701 11.8852 6.97951 11.9212C7.09651 11.9572 7.20226 12.018 7.29676 12.1035C7.39126 12.1845 7.46776 12.2925 7.52626 12.4275C7.58476 12.558 7.61401 12.7177 7.61401 12.9067C7.61401 13.0912 7.58926 13.2667 7.53976 13.4332C7.49026 13.5952 7.41826 13.737 7.32376 13.8585C7.22926 13.98 7.11451 14.0767 6.97951 14.1487C6.84451 14.2162 6.69151 14.25 6.52051 14.25H4.23901V9.5385ZM5.20426 13.4332H6.25051C6.35851 13.4332 6.44401 13.4017 6.50701 13.3387C6.57451 13.2757 6.60826 13.17 6.60826 13.0215V12.684C6.60826 12.5355 6.57451 12.4297 6.50701 12.3667C6.44401 12.3037 6.35851 12.2722 6.25051 12.2722H5.20426V13.4332ZM5.20426 11.4757H6.09526C6.20776 11.4757 6.29551 11.4442 6.35851 11.3812C6.42151 11.3182 6.45301 11.2147 6.45301 11.0707V10.7602C6.45301 10.6162 6.42151 10.5127 6.35851 10.4497C6.29551 10.3867 6.20776 10.3552 6.09526 10.3552H5.20426V11.4757Z" fill="#F5F1FF"/>
<path d="M10.9121 14.25L10.6219 13.0957H9.17738L8.88713 14.25H7.96238L9.29888 9.5385H10.5274L11.8639 14.25H10.9121ZM10.0954 11.2327L9.94688 10.416H9.83888L9.69038 11.2327L9.41363 12.3195H10.3856L10.0954 11.2327Z" fill="#F5F1FF"/>
<path d="M12.459 9.5385H14.5515C14.9295 9.5385 15.2085 9.64875 15.3885 9.86925C15.573 10.0897 15.6652 10.3822 15.6652 10.7467C15.6652 10.9447 15.6405 11.109 15.591 11.2395C15.546 11.3655 15.4852 11.4667 15.4087 11.5432C15.3367 11.6152 15.2535 11.6692 15.159 11.7052C15.0645 11.7367 14.9677 11.7547 14.8687 11.7592V11.8672C14.9767 11.8672 15.087 11.8852 15.1995 11.9212C15.3165 11.9572 15.4222 12.018 15.5167 12.1035C15.6112 12.1845 15.6877 12.2925 15.7462 12.4275C15.8047 12.558 15.834 12.7177 15.834 12.9067C15.834 13.0912 15.8092 13.2667 15.7597 13.4332C15.7102 13.5952 15.6382 13.737 15.5437 13.8585C15.4492 13.98 15.3345 14.0767 15.1995 14.1487C15.0645 14.2162 14.9115 14.25 14.7405 14.25H12.459V9.5385ZM13.4242 13.4332H14.4705C14.5785 13.4332 14.664 13.4017 14.727 13.3387C14.7945 13.2757 14.8282 13.17 14.8282 13.0215V12.684C14.8282 12.5355 14.7945 12.4297 14.727 12.3667C14.664 12.3037 14.5785 12.2722 14.4705 12.2722H13.4242V13.4332ZM13.4242 11.4757H14.3152C14.4277 11.4757 14.5155 11.4442 14.5785 11.3812C14.6415 11.3182 14.673 11.2147 14.673 11.0707V10.7602C14.673 10.6162 14.6415 10.5127 14.5785 10.4497C14.5155 10.3867 14.4277 10.3552 14.3152 10.3552H13.4242V11.4757Z" fill="#F5F1FF"/>
<path d="M19.1321 14.25L18.8418 13.0957H17.3973L17.1071 14.25H16.1823L17.5188 9.5385H18.7473L20.0838 14.25H19.1321ZM18.3153 11.2327L18.1668 10.416H18.0588L17.9103 11.2327L17.6336 12.3195H18.6056L18.3153 11.2327Z" fill="#F5F1FF"/>
</svg>
