<svg width="24" height="24" viewBox="0 0 24 24" fill="none" xmlns="http://www.w3.org/2000/svg">
<path fill-rule="evenodd" clip-rule="evenodd" d="M12 0C5.37225 0 0 5.37225 0 12C0 18.6278 5.37225 24 12 24C18.6285 24 24 18.6278 24 12C24 5.37225 18.6285 0 12 0Z" fill="white"/>
<path d="M7.25041 14.25L6.96016 13.0957H5.51566L5.22541 14.25H4.30066L5.63716 9.5385H6.86566L8.20216 14.25H7.25041ZM6.43366 11.2327L6.28516 10.416H6.17716L6.02866 11.2327L5.75191 12.3195H6.72391L6.43366 11.2327Z" fill="#615C6A"/>
<path d="M11.4889 14.25L11.1987 13.0957H9.75418L9.46393 14.25H8.53919L9.87568 9.5385H11.1042L12.4407 14.25H11.4889ZM10.6722 11.2327L10.5237 10.416H10.4157L10.2672 11.2327L9.99043 12.3195H10.9624L10.6722 11.2327Z" fill="#615C6A"/>
<path d="M13.0358 14.25V9.5385H15.0743C15.4973 9.5385 15.819 9.6735 16.0395 9.9435C16.26 10.2135 16.3703 10.5735 16.3703 11.0235C16.3703 11.4735 16.26 11.8335 16.0395 12.1035C15.819 12.3735 15.4973 12.5085 15.0743 12.5085H14.001V14.25H13.0358ZM14.001 11.6647H14.9528C15.0833 11.6647 15.1845 11.631 15.2565 11.5635C15.333 11.496 15.3713 11.3835 15.3713 11.226V10.821C15.3713 10.6635 15.333 10.551 15.2565 10.4835C15.1845 10.416 15.0833 10.3822 14.9528 10.3822H14.001V11.6647Z" fill="#615C6A"/>
<path d="M17.0502 14.25V9.5385H18.0154V13.4062H19.6152V14.25H17.0502Z" fill="#615C6A"/>
</svg>
