<svg width="24" height="24" viewBox="0 0 24 24" fill="none" xmlns="http://www.w3.org/2000/svg">
<path fill-rule="evenodd" clip-rule="evenodd" d="M12 0C5.37225 0 0 5.37225 0 12C0 18.6278 5.37225 24 12 24C18.6285 24 24 18.6278 24 12C24 5.37225 18.6285 0 12 0Z" fill="#D53933"/>
<path d="M6.9147 10.3822V14.25H5.94945V10.3822H4.8222V9.53849H8.04195V10.3822H6.9147Z" fill="#F5F1FF"/>
<path d="M9.96992 14.331C9.26342 14.331 8.70992 14.0835 8.30942 13.5885L8.93042 12.9675C9.20042 13.314 9.55367 13.4872 9.99017 13.4872C10.4402 13.4872 10.6652 13.2892 10.6652 12.8932C10.6652 12.7312 10.6247 12.6052 10.5437 12.5152C10.4627 12.4252 10.3367 12.3622 10.1657 12.3262L9.73367 12.2452C9.29717 12.1642 8.97542 12.0135 8.76842 11.793C8.56592 11.568 8.46467 11.2575 8.46467 10.8615C8.46467 10.4025 8.59967 10.0537 8.86967 9.81524C9.13967 9.57674 9.53567 9.45749 10.0577 9.45749C10.7237 9.45749 11.2299 9.67349 11.5764 10.1055L10.9554 10.7265C10.8384 10.5825 10.7057 10.4767 10.5572 10.4092C10.4132 10.3372 10.2422 10.3012 10.0442 10.3012C9.82817 10.3012 9.67067 10.3417 9.57167 10.4227C9.47717 10.5037 9.42992 10.6342 9.42992 10.8142C9.42992 10.9717 9.46592 11.091 9.53792 11.172C9.61442 11.253 9.73592 11.3115 9.90242 11.3475L10.3344 11.4352C10.5639 11.4847 10.7597 11.5455 10.9217 11.6175C11.0882 11.685 11.2232 11.7727 11.3267 11.8807C11.4347 11.9887 11.5112 12.117 11.5562 12.2655C11.6057 12.414 11.6304 12.5872 11.6304 12.7852C11.6304 13.2892 11.4887 13.674 11.2052 13.9395C10.9217 14.2005 10.5099 14.331 9.96992 14.331Z" fill="#F5F1FF"/>
<path d="M12.3437 14.25V9.53849H13.3089V13.4062H14.9087V14.25H12.3437Z" fill="#F5F1FF"/>
<path d="M18.2587 14.25L17.9685 13.0957H16.524L16.2337 14.25H15.309L16.6455 9.53849H17.874L19.2105 14.25H18.2587ZM17.442 11.2327L17.2935 10.416H17.1855L17.037 11.2327L16.7602 12.3195H17.7322L17.442 11.2327Z" fill="#F5F1FF"/>
</svg>
