<svg width="24" height="24" viewBox="0 0 24 24" fill="none" xmlns="http://www.w3.org/2000/svg">
<path fill-rule="evenodd" clip-rule="evenodd" d="M12 0C5.37225 0 0 5.37225 0 12C0 18.6278 5.37225 24 12 24C18.6285 24 24 18.6278 24 12C24 5.37225 18.6285 0 12 0Z" fill="#5C91C8"/>
<path d="M5.26957 9.53851V12.5963C5.26957 12.9068 5.32132 13.1318 5.42482 13.2713C5.53282 13.4063 5.72407 13.4738 5.99857 13.4738C6.27307 13.4738 6.46207 13.4063 6.56557 13.2713C6.67357 13.1318 6.72757 12.9068 6.72757 12.5963V9.53851H7.69282V12.468C7.69282 12.801 7.66357 13.0845 7.60507 13.3185C7.54657 13.5525 7.44982 13.746 7.31482 13.899C7.18432 14.0475 7.01107 14.1578 6.79507 14.2298C6.57907 14.2973 6.31357 14.331 5.99857 14.331C5.68357 14.331 5.41807 14.2973 5.20207 14.2298C4.98607 14.1578 4.81057 14.0475 4.67557 13.899C4.54507 13.746 4.45057 13.5525 4.39207 13.3185C4.33357 13.0845 4.30432 12.801 4.30432 12.468V9.53851H5.26957Z" fill="#F5F1FF"/>
<path d="M9.54828 14.25H8.58303V9.53851H10.6215C11.0445 9.53851 11.3663 9.67126 11.5868 9.93676C11.8073 10.2023 11.9175 10.5578 11.9175 11.0033C11.9175 11.3498 11.8523 11.6423 11.7218 11.8808C11.5913 12.1193 11.3978 12.2858 11.1413 12.3803L11.9648 14.25H10.9185L10.1895 12.468H9.54828V14.25ZM10.5 11.6648C10.6305 11.6648 10.7318 11.6333 10.8038 11.5703C10.8803 11.5028 10.9185 11.388 10.9185 11.226V10.821C10.9185 10.659 10.8803 10.5465 10.8038 10.4835C10.7318 10.416 10.6305 10.3823 10.5 10.3823H9.54828V11.6648H10.5Z" fill="#F5F1FF"/>
<path d="M14.4129 10.3823V14.25H13.4476V10.3823H12.3204V9.53851H15.5401V10.3823H14.4129Z" fill="#F5F1FF"/>
<path d="M18.7014 12.2858H17.1354V14.25H16.1702V9.53851H17.1354V11.4488H18.7014V9.53851H19.6667V14.25H18.7014V12.2858Z" fill="#F5F1FF"/>
</svg>
