<svg width="24" height="24" viewBox="0 0 24 24" fill="none" xmlns="http://www.w3.org/2000/svg">
<path fill-rule="evenodd" clip-rule="evenodd" d="M12 0C5.37225 0 0 5.37225 0 12C0 18.6278 5.37225 24 12 24C18.6285 24 24 18.6278 24 12C24 5.37225 18.6285 0 12 0Z" fill="#2C3F34"/>
<path d="M6.99459 15.099C6.56559 15.099 6.18609 15.022 5.85609 14.868C5.53159 14.7085 5.25109 14.4747 5.01459 14.1667L5.69109 13.515C5.85609 13.7405 6.04859 13.9137 6.26859 14.0347C6.48859 14.1502 6.73609 14.208 7.01109 14.208C7.62709 14.208 7.93509 13.9275 7.93509 13.3665C7.93509 13.1355 7.88009 12.9595 7.77009 12.8385C7.66009 12.7175 7.47859 12.6295 7.22559 12.5745L6.72234 12.4755C6.19984 12.3655 5.81484 12.1785 5.56734 11.9145C5.31984 11.6505 5.19609 11.282 5.19609 10.809C5.19609 10.259 5.35834 9.84374 5.68284 9.56324C6.01284 9.28274 6.48034 9.14249 7.08534 9.14249C7.49784 9.14249 7.84984 9.21124 8.14134 9.34874C8.43834 9.48074 8.69134 9.68974 8.90034 9.97574L8.22384 10.611C8.08084 10.4185 7.91859 10.2755 7.73709 10.182C7.55559 10.083 7.33284 10.0335 7.06884 10.0335C6.77734 10.0335 6.56284 10.0912 6.42534 10.2067C6.28784 10.3222 6.21909 10.5092 6.21909 10.7677C6.21909 10.9822 6.27134 11.1472 6.37584 11.2627C6.48584 11.3782 6.66184 11.4635 6.90384 11.5185L7.40709 11.6257C7.68759 11.6862 7.92409 11.7605 8.11659 11.8485C8.31459 11.9365 8.47409 12.0465 8.59509 12.1785C8.72159 12.3105 8.81234 12.4672 8.86734 12.6487C8.92784 12.8247 8.95809 13.0337 8.95809 13.2757C8.95809 13.8697 8.78759 14.3235 8.44659 14.637C8.11109 14.945 7.62709 15.099 6.99459 15.099Z" fill="#F5F1FF"/>
<path d="M10.1812 15V9.24149H12.5655C13.0715 9.24149 13.4537 9.39824 13.7122 9.71174C13.9762 10.0252 14.1082 10.457 14.1082 11.007C14.1082 11.557 13.9762 11.9887 13.7122 12.3022C13.4537 12.6157 13.0715 12.7725 12.5655 12.7725H11.2125V15H10.1812ZM11.2125 11.8732H12.4582C12.6342 11.8732 12.7717 11.8265 12.8707 11.733C12.9752 11.634 13.0275 11.4772 13.0275 11.2627V10.7512C13.0275 10.5367 12.9752 10.3827 12.8707 10.2892C12.7717 10.1902 12.6342 10.1407 12.4582 10.1407H11.2125V11.8732Z" fill="#F5F1FF"/>
<path d="M16.3751 15V12.7972L14.6096 9.24149H15.7399L16.8536 11.7165H16.9691L18.0581 9.24149H19.1636L17.4064 12.7972V15H16.3751Z" fill="#F5F1FF"/>
</svg>
