<svg width="24" height="24" viewBox="0 0 24 24" fill="none" xmlns="http://www.w3.org/2000/svg">
<path fill-rule="evenodd" clip-rule="evenodd" d="M12 0C5.37225 0 0 5.37225 0 12C0 18.6278 5.37225 24 12 24C18.6285 24 24 18.6278 24 12C24 5.37225 18.6285 0 12 0Z" fill="#87B457"/>
<path d="M5.40223 11.7255L5.10523 10.9763H4.99723L5.05123 11.766V14.25H4.14673V9.53851H5.19973L6.38773 12.063L6.68473 12.8123H6.79273L6.73873 12.0225V9.53851H7.64323V14.25H6.59023L5.40223 11.7255Z" fill="#F5F1FF"/>
<path d="M9.56898 14.25L8.18523 9.53851H9.18423L9.94023 12.4005L10.0887 13.3725H10.1967L10.3452 12.4005L11.0877 9.53851H12.0597L10.703 14.25H9.56898Z" fill="#F5F1FF"/>
<path d="M12.5974 9.53851H14.2512C14.5392 9.53851 14.7957 9.58351 15.0207 9.67351C15.2502 9.75901 15.4437 9.89626 15.6012 10.0853C15.7587 10.2743 15.8802 10.5173 15.9657 10.8143C16.0512 11.1113 16.0939 11.4713 16.0939 11.8943C16.0939 12.3173 16.0512 12.6773 15.9657 12.9743C15.8802 13.2713 15.7587 13.5143 15.6012 13.7033C15.4437 13.8923 15.2502 14.0318 15.0207 14.1218C14.7957 14.2073 14.5392 14.25 14.2512 14.25H12.5974V9.53851ZM14.2512 13.4063C14.7957 13.4063 15.0679 13.0913 15.0679 12.4613V11.3273C15.0679 10.6973 14.7957 10.3823 14.2512 10.3823H13.5627V13.4063H14.2512Z" fill="#F5F1FF"/>
<path d="M19.2244 14.25L18.9341 13.0958H17.4896L17.1994 14.25H16.2746L17.6111 9.53851H18.8396L20.1761 14.25H19.2244ZM18.4076 11.2328L18.2591 10.416H18.1511L18.0026 11.2328L17.7259 12.3195H18.6979L18.4076 11.2328Z" fill="#F5F1FF"/>
</svg>
