<svg width="24" height="24" viewBox="0 0 24 24" fill="none" xmlns="http://www.w3.org/2000/svg">
<g clip-path="url(#clip0_104_1087)">
<path fill-rule="evenodd" clip-rule="evenodd" d="M5 9C4.45 9 3.979 8.804 3.587 8.412C3.19567 8.02067 3 7.55 3 7V5C3 4.45 3.19567 3.979 3.587 3.587C3.979 3.19567 4.45 3 5 3H13C13.55 3 14.021 3.19567 14.413 3.587C14.8043 3.979 15 4.45 15 5V7C15 7.55 14.8043 8.02067 14.413 8.412C14.021 8.804 13.55 9 13 9H5ZM5 21C4.45 21 3.979 20.8043 3.587 20.413C3.19567 20.021 3 19.55 3 19V13C3 12.45 3.19567 11.979 3.587 11.587C3.979 11.1957 4.45 11 5 11H19C19.55 11 20.021 11.1957 20.413 11.587C20.8043 11.979 21 12.45 21 13V19C21 19.55 20.8043 20.021 20.413 20.413C20.021 20.8043 19.55 21 19 21H5ZM19 9C18.45 9 17.9793 8.804 17.588 8.412C17.196 8.02067 17 7.55 17 7V5C17 4.45 17.196 3.979 17.588 3.587C17.9793 3.19567 18.45 3 19 3C19.55 3 20.021 3.19567 20.413 3.587C20.8043 3.979 21 4.45 21 5V7C21 7.55 20.8043 8.02067 20.413 8.412C20.021 8.804 19.55 9 19 9ZM5 14C5 13.4477 5.44772 13 6 13H8C8.55228 13 9 13.4477 9 14C9 14.5523 8.55228 15 8 15H6C5.44772 15 5 14.5523 5 14ZM12 13C11.4477 13 11 13.4477 11 14C11 14.5523 11.4477 15 12 15H14C14.5523 15 15 14.5523 15 14C15 13.4477 14.5523 13 14 13H12Z" fill="#9A95A4"/>
</g>
<defs>
<clipPath id="clip0_104_1087">
<rect width="24" height="24" fill="white"/>
</clipPath>
</defs>
</svg>
