<svg width="24" height="24" viewBox="0 0 24 24" fill="none" xmlns="http://www.w3.org/2000/svg">
<rect width="24" height="24" rx="8" fill="#5F42FF"/>
<path fill-rule="evenodd" clip-rule="evenodd" d="M10 18C9.44772 18 9 18.4477 9 19C9 19.5523 9.44772 20 10 20H14C14.5523 20 15 19.5523 15 19C15 18.4477 14.5523 18 14 18H10ZM5 16C5 15.4477 5.44772 15 6 15H18C18.5523 15 19 15.4477 19 16C19 16.5523 18.5523 17 18 17H6C5.44772 17 5 16.5523 5 16ZM5 12C4.44772 12 4 12.4477 4 13C4 13.5523 4.44772 14 5 14H19C19.5523 14 20 13.5523 20 13C20 12.4477 19.5523 12 19 12H5Z" fill="white"/>
</svg>
