<svg width="24" height="24" viewBox="0 0 24 24" fill="none" xmlns="http://www.w3.org/2000/svg">
<rect width="24" height="24" rx="8" fill="#5F42FF"/>
<path fill-rule="evenodd" clip-rule="evenodd" d="M6 11C5.44772 11 5 11.4477 5 12C5 12.5523 5.44772 13 6 13H18C18.5523 13 19 12.5523 19 12C19 11.4477 18.5523 11 18 11H6ZM8 15C8 14.4477 8.44771 14 9 14H15C15.5523 14 16 14.4477 16 15C16 15.5523 15.5523 16 15 16H9C8.44771 16 8 15.5523 8 15ZM12 17C11.4477 17 11 17.4477 11 18C11 18.5523 11.4477 19 12 19C12.5523 19 13 18.5523 13 18C13 17.4477 12.5523 17 12 17ZM11 6C11 5.44772 11.4477 5 12 5C12.5523 5 13 5.44772 13 6C13 6.55228 12.5523 7 12 7C11.4477 7 11 6.55228 11 6ZM9 8C8.44771 8 8 8.44771 8 9C8 9.55229 8.44771 10 9 10H15C15.5523 10 16 9.55229 16 9C16 8.44771 15.5523 8 15 8H9Z" fill="#F5F1FF"/>
</svg>
