<svg width="24" height="24" viewBox="0 0 24 24" fill="none" xmlns="http://www.w3.org/2000/svg">
<rect width="24" height="24" rx="8" fill="#5F42FF"/>
<path fill-rule="evenodd" clip-rule="evenodd" d="M19 13C19.5523 13 20 12.5523 20 12C20 11.4477 19.5523 11 19 11H15C13.8954 11 13 10.1046 13 9L13 5C13 4.44772 12.5523 4 12 4C11.4477 4 11 4.44772 11 5L11 9C11 11.2091 12.7909 13 15 13H19ZM19 9C19 9.55229 18.5523 10 18 10H15.5C14.6716 10 14 9.32843 14 8.5V6C14 5.44772 14.4477 5 15 5C15.5523 5 16 5.44772 16 6V8L18 8C18.5523 8 19 8.44772 19 9ZM18 16C18.5523 16 19 15.5523 19 15C19 14.4477 18.5523 14 18 14H15C12.2386 14 10 11.7614 10 9V6C10 5.44772 9.55229 5 9 5C8.44772 5 8 5.44772 8 6L8 9C8 12.866 11.134 16 15 16H18Z" fill="white"/>
</svg>
