<svg width="24" height="24" viewBox="0 0 24 24" fill="none" xmlns="http://www.w3.org/2000/svg">
<rect width="24" height="24" rx="8" fill="#5F42FF"/>
<path fill-rule="evenodd" clip-rule="evenodd" d="M11 5C11 4.44772 11.4477 4 12 4C16.4183 4 20 7.58172 20 12C20 12.5523 19.5523 13 19 13C18.4477 13 18 12.5523 18 12C18 8.68629 15.3137 6 12 6C11.4477 6 11 5.55228 11 5ZM12 20C12.5523 20 13 19.5523 13 19C13 18.4477 12.5523 18 12 18C8.68629 18 6 15.3137 6 12C6 11.4477 5.55229 11 5 11C4.44772 11 4 11.4477 4 12C4 16.4183 7.58172 20 12 20ZM11 8C11 7.44772 11.4477 7 12 7C14.7614 7 17 9.23858 17 12C17 12.5523 16.5523 13 16 13C15.4477 13 15 12.5523 15 12C15 10.3431 13.6569 9 12 9C11.4477 9 11 8.55229 11 8ZM12 17C12.5523 17 13 16.5523 13 16C13 15.4477 12.5523 15 12 15C10.3431 15 9 13.6569 9 12C9 11.4477 8.55229 11 8 11C7.44772 11 7 11.4477 7 12C7 14.7614 9.23858 17 12 17Z" fill="white"/>
</svg>
