<svg width="24" height="24" viewBox="0 0 24 24" fill="none" xmlns="http://www.w3.org/2000/svg">
<path fill-rule="evenodd" clip-rule="evenodd" d="M2 12C2 16.95 5.6 21.05 10.35 21.9L10.4091 21.8517C10.4061 21.8511 10.403 21.8506 10.4 21.85V14.8H7.90002V12H10.4V9.80002C10.4 7.30002 12 5.90002 14.3 5.90002C15 5.90002 15.8 6.00002 16.5 6.10002V8.65002H15.2C14 8.65002 13.7 9.25002 13.7 10.05V12H16.35L15.9 14.8H13.7V21.85C13.6696 21.8556 13.6391 21.8609 13.6087 21.8662L13.65 21.9C18.4 21.05 22 16.95 22 12C22 6.5 17.5 2 12 2C6.5 2 2 6.5 2 12Z" fill="#05010F"/>
</svg>
