<svg width="24" height="24" viewBox="0 0 24 24" fill="none" xmlns="http://www.w3.org/2000/svg">
<g clip-path="url(#clip0_104_1249)">
<path fill-rule="evenodd" clip-rule="evenodd" d="M14.3229 5.24666C14.9752 4.40466 15.4696 3.21458 15.2908 1.9998C14.2247 2.07388 12.9786 2.75594 12.2516 3.64497C11.5888 4.45052 11.044 5.64884 11.2568 6.81188C12.4222 6.84834 13.6251 6.14981 14.3229 5.24666ZM20.0835 16.6736C19.6171 17.7132 19.3926 18.1777 18.7918 19.0985C17.9537 20.3838 16.7719 21.9844 15.306 21.9961C14.005 22.0102 13.6695 21.1435 11.9032 21.1541C10.137 21.1635 9.76875 22.0126 8.46538 21.9996C7.0007 21.9867 5.88086 20.5426 5.04273 19.2573C2.69784 15.6658 2.45119 11.4499 3.89717 9.20734C4.92584 7.61506 6.54832 6.68369 8.07263 6.68369C9.62381 6.68369 10.5999 7.53981 11.8845 7.53981C13.1306 7.53981 13.8893 6.68135 15.6836 6.68135C17.0419 6.68135 18.4809 7.42573 19.5048 8.7099C16.1477 10.5609 16.6912 15.3836 20.0835 16.6736H20.0835Z" fill="#F5F1FF"/>
</g>
<defs>
<clipPath id="clip0_104_1249">
<rect width="17.0833" height="20" fill="white" transform="translate(3 2)"/>
</clipPath>
</defs>
</svg>
