<svg width="24" height="24" viewBox="0 0 24 24" fill="none" xmlns="http://www.w3.org/2000/svg">
<path fill-rule="evenodd" clip-rule="evenodd" d="M6.09671 12.0001C6.09671 11.3505 6.2046 10.7278 6.39714 10.1437L3.02691 7.57007C2.37007 8.9037 2 10.4064 2 12C2 13.5923 2.36961 15.0941 3.02554 16.4269L6.39395 13.8482C6.20323 13.2669 6.09671 12.6464 6.09671 12.0001" fill="#FBBC05"/>
<path fill-rule="evenodd" clip-rule="evenodd" d="M12.0143 6.09091C13.4253 6.09091 14.6999 6.5909 15.7013 7.40909L18.6145 4.5C16.8393 2.95454 14.5633 2 12.0143 2C8.05684 2 4.65567 4.26318 3.02698 7.56998L6.39721 10.1436C7.17376 7.78634 9.38735 6.09089 12.0143 6.09089" fill="#EB4335"/>
<path fill-rule="evenodd" clip-rule="evenodd" d="M12.0143 17.9091C9.38737 17.9091 7.1738 16.2136 6.39721 13.8564L3.02698 16.4295C4.65565 19.7368 8.05683 22 12.0143 22C14.4568 22 16.7888 21.1327 18.539 19.5077L15.3399 17.0345C14.4372 17.6032 13.3006 17.9091 12.0143 17.9091" fill="#34A853"/>
<path fill-rule="evenodd" clip-rule="evenodd" d="M21.5733 12C21.5733 11.4091 21.4822 10.7727 21.3457 10.1818H12.0143V14.0455H17.3855C17.1169 15.3627 16.3859 16.3755 15.3399 17.0345L18.539 19.5077C20.3775 17.8014 21.5733 15.2595 21.5733 12" fill="#4285F4"/>
</svg>
