<svg width="24" height="24" viewBox="0 0 24 24" fill="none" xmlns="http://www.w3.org/2000/svg">
<g clip-path="url(#clip0_104_1095)">
<path d="M6.23616 17.6225L5.14053 18.0056C4.65178 18.1763 4.51803 18.6438 4.88116 19.0125C6.69553 20.8556 9.21616 22 12.0005 22C17.5143 22 22.0005 17.5138 22.0005 12C22.0005 11.4846 21.9613 10.9781 21.8858 10.4835C21.2767 11.3363 20.4498 12.0229 19.4865 12.4622C19.247 16.3834 15.981 19.5 12.0005 19.5C10.218 19.5 8.58303 18.8719 7.29491 17.8288C7.02741 17.6119 6.56178 17.5081 6.23616 17.6225Z" fill="#9A95A4"/>
<path d="M11.5375 4.5142C11.9767 3.55075 12.6632 2.72383 13.516 2.1146C13.0217 2.03914 12.5156 2 12.0005 2C9.21616 2 6.69553 3.145 4.88116 4.98687C4.51803 5.35625 4.65178 5.82312 5.13991 5.99375L6.23616 6.3775C6.56116 6.49125 7.02741 6.38813 7.29491 6.17063C8.4701 5.21906 9.93533 4.61274 11.5375 4.5142Z" fill="#9A95A4"/>
<path d="M3.0825 8.18275C3.26 8.09212 3.45437 8.0465 3.64937 8.0465C3.78875 8.0465 3.92812 8.06962 4.06187 8.1165L11.7875 10.8196C12.2894 10.9952 12.625 11.469 12.625 11.9996C12.625 12.5309 12.2894 13.0046 11.7881 13.1796L4.0625 15.8834C3.74062 15.9965 3.38625 15.9721 3.0825 15.8177C2.77812 15.6634 2.55125 15.3909 2.4525 15.0646C2.15187 14.069 2 13.0377 2 11.9996C2 10.9621 2.15187 9.9315 2.4525 8.93587C2.55125 8.609 2.77812 8.33712 3.0825 8.18275Z" fill="#9A95A4"/>
<path d="M16 10C16 10.5523 16.4477 11 17 11C17.5523 11 18 10.5523 18 10V8H20C20.5523 8 21 7.55228 21 7C21 6.44772 20.5523 6 20 6H18V4C18 3.44772 17.5523 3 17 3C16.4477 3 16 3.44772 16 4V6H14C13.4477 6 13 6.44772 13 7C13 7.55228 13.4477 8 14 8H16V10Z" fill="#9A95A4"/>
</g>
<defs>
<clipPath id="clip0_104_1095">
<rect width="24" height="24" fill="white"/>
</clipPath>
</defs>
</svg>
