<svg width="24" height="24" viewBox="0 0 24 24" fill="none" xmlns="http://www.w3.org/2000/svg">
<g clip-path="url(#clip0_104_1102)">
<path fill-rule="evenodd" clip-rule="evenodd" d="M4 21H5V22C5 22.55 5.45 23 6 23C6.55 23 7 22.55 7 22V21L17 21V22C17 22.55 17.45 23 18 23C18.55 23 19 22.55 19 22V21H20C21.1 21 22 20.1 22 19L22 3C22 1.9 21.1 1 20 1H4C2.9 1 2 1.9 2 3V19C2 20.1 2.9 21 4 21ZM12.713 15.712C12.521 15.904 12.2833 16 12 16C11.7167 16 11.4793 15.904 11.288 15.712C11.096 15.5207 11 15.2833 11 15C11 14.7167 11.096 14.479 11.288 14.287C11.4793 14.0957 11.7167 14 12 14C12.2833 14 12.521 14.0957 12.713 14.287C12.9043 14.479 13 14.7167 13 15C13 15.2833 12.9043 15.5207 12.713 15.712ZM12.713 11.712C12.521 11.904 12.2833 12 12 12C11.7167 12 11.4793 11.904 11.288 11.712C11.096 11.5207 11 11.2833 11 11V7C11 6.71667 11.096 6.479 11.288 6.287C11.4793 6.09567 11.7167 6 12 6C12.2833 6 12.521 6.09567 12.713 6.287C12.9043 6.479 13 6.71667 13 7V11C13 11.2833 12.9043 11.5207 12.713 11.712Z" fill="#9A95A4"/>
</g>
<defs>
<clipPath id="clip0_104_1102">
<rect width="24" height="24" fill="white"/>
</clipPath>
</defs>
</svg>
