<svg width="24" height="24" viewBox="0 0 24 24" fill="none" xmlns="http://www.w3.org/2000/svg">
<g clip-path="url(#clip0_104_1176)">
<path d="M19.3 16.5L16.1 13.3C16.2333 13.0167 16.3333 12.7293 16.4 12.438C16.4667 12.146 16.5 11.8333 16.5 11.5C16.5 10.25 16.0627 9.18734 15.188 8.31201C14.3127 7.43734 13.25 7.00001 12 7.00001C11.6667 7.00001 11.354 7.03334 11.062 7.10001C10.7707 7.16667 10.4833 7.26667 10.2 7.40001L7.64999 4.85001C8.33332 4.56667 9.03332 4.35401 9.74999 4.21201C10.4667 4.07067 11.2167 4.00001 12 4.00001C14.3833 4.00001 16.525 4.62901 18.425 5.88701C20.325 7.14567 21.75 8.78334 22.7 10.8C22.75 10.8833 22.7833 10.9873 22.8 11.112C22.8167 11.2373 22.825 11.3667 22.825 11.5C22.825 11.6333 22.8127 11.7623 22.788 11.887C22.7627 12.0123 22.7333 12.1167 22.7 12.2C22.3167 13.05 21.8377 13.8417 21.263 14.575C20.6877 15.3083 20.0333 15.95 19.3 16.5ZM19.1 21.9L15.6 18.45C15.0167 18.6333 14.4293 18.771 13.838 18.863C13.246 18.9543 12.6333 19 12 19C9.61665 19 7.47499 18.371 5.57499 17.113C3.67499 15.8543 2.24999 14.2167 1.29999 12.2C1.24999 12.1167 1.21665 12.0123 1.19999 11.887C1.18332 11.7623 1.17499 11.6333 1.17499 11.5C1.17499 11.3667 1.18332 11.2417 1.19999 11.125C1.21665 11.0083 1.24999 10.9083 1.29999 10.825C1.64999 10.075 2.06665 9.38334 2.54999 8.75001C3.03332 8.11667 3.56665 7.53334 4.14999 7.00001L2.07499 4.90001C1.89165 4.71667 1.79999 4.48734 1.79999 4.21201C1.79999 3.93734 1.89999 3.70001 2.09999 3.50001C2.28332 3.31667 2.51665 3.22501 2.79999 3.22501C3.08332 3.22501 3.31665 3.31667 3.49999 3.50001L20.5 20.5C20.6833 20.6833 20.7793 20.9127 20.788 21.188C20.796 21.4627 20.7 21.7 20.5 21.9C20.3167 22.0833 20.0833 22.175 19.8 22.175C19.5167 22.175 19.2833 22.0833 19.1 21.9ZM12 16C12.1833 16 12.354 15.9917 12.512 15.975C12.6707 15.9583 12.8417 15.925 13.025 15.875L7.62499 10.475C7.57499 10.6583 7.54166 10.8293 7.52499 10.988C7.50832 11.146 7.49999 11.3167 7.49999 11.5C7.49999 12.75 7.93732 13.8127 8.81199 14.688C9.68732 15.5627 10.75 16 12 16ZM14.65 11.85L11.65 8.85001C12.6 8.70001 13.375 8.96667 13.975 9.65001C14.575 10.3333 14.8 11.0667 14.65 11.85Z" fill="#9A95A4"/>
</g>
<defs>
<clipPath id="clip0_104_1176">
<rect width="24" height="24" fill="white"/>
</clipPath>
</defs>
</svg>
