<svg width="24" height="24" viewBox="0 0 24 24" fill="none" xmlns="http://www.w3.org/2000/svg">
<g clip-path="url(#clip0_104_1135)">
<path d="M6 9H9C9.28333 9 9.521 8.904 9.713 8.712C9.90433 8.52067 10 8.28333 10 8C10 7.71667 9.90433 7.479 9.713 7.287C9.521 7.09567 9.28333 7 9 7H6C5.71667 7 5.479 7.09567 5.287 7.287C5.09567 7.479 5 7.71667 5 8C5 8.28333 5.09567 8.52067 5.287 8.712C5.479 8.904 5.71667 9 6 9ZM6 13H9C9.28333 13 9.521 12.904 9.713 12.712C9.90433 12.5207 10 12.2833 10 12C10 11.7167 9.90433 11.479 9.713 11.287C9.521 11.0957 9.28333 11 9 11H6C5.71667 11 5.479 11.0957 5.287 11.287C5.09567 11.479 5 11.7167 5 12C5 12.2833 5.09567 12.5207 5.287 12.712C5.479 12.904 5.71667 13 6 13ZM6 17H9C9.28333 17 9.521 16.904 9.713 16.712C9.90433 16.5207 10 16.2833 10 16C10 15.7167 9.90433 15.479 9.713 15.287C9.521 15.0957 9.28333 15 9 15H6C5.71667 15 5.479 15.0957 5.287 15.287C5.09567 15.479 5 15.7167 5 16C5 16.2833 5.09567 16.5207 5.287 16.712C5.479 16.904 5.71667 17 6 17ZM14.55 14.575C14.6833 14.575 14.8083 14.554 14.925 14.512C15.0417 14.4707 15.15 14.4 15.25 14.3L18.8 10.75C19.0167 10.5333 19.121 10.2957 19.113 10.037C19.1043 9.779 19 9.55 18.8 9.35C18.6 9.15 18.3623 9.05 18.087 9.05C17.8123 9.05 17.575 9.15 17.375 9.35L14.55 12.175L13.825 11.45C13.625 11.25 13.3917 11.154 13.125 11.162C12.8583 11.1707 12.625 11.275 12.425 11.475C12.2417 11.675 12.1457 11.9083 12.137 12.175C12.129 12.4417 12.225 12.675 12.425 12.875L13.85 14.3C13.95 14.4 14.0583 14.4707 14.175 14.512C14.2917 14.554 14.4167 14.575 14.55 14.575ZM4 21C3.45 21 2.97933 20.8043 2.588 20.413C2.196 20.021 2 19.55 2 19V5C2 4.45 2.196 3.979 2.588 3.587C2.97933 3.19567 3.45 3 4 3H20C20.55 3 21.021 3.19567 21.413 3.587C21.8043 3.979 22 4.45 22 5V19C22 19.55 21.8043 20.021 21.413 20.413C21.021 20.8043 20.55 21 20 21H4Z" fill="#9A95A4"/>
</g>
<defs>
<clipPath id="clip0_104_1135">
<rect width="24" height="24" fill="white"/>
</clipPath>
</defs>
</svg>
