<svg width="24" height="24" viewBox="0 0 24 24" fill="none" xmlns="http://www.w3.org/2000/svg">
<g clip-path="url(#clip0_104_1117)">
<path d="M14 2C13.32 2 12.64 2.09 11.98 2.26C11.45 2.4 11.13 2.95 11.26 3.48C11.4 4.01 11.95 4.33 12.48 4.2C12.97 4.07 13.48 4.01 14 4.01C17.31 4.01 20 6.7 20 10.01C20 10.52 19.93 11.03 19.81 11.53C19.67 12.06 19.99 12.61 20.53 12.75C20.61 12.77 20.7 12.78 20.78 12.78C21.22 12.78 21.63 12.48 21.75 12.03C21.92 11.37 22.01 10.69 22.01 10.01C22 5.59 18.41 2 14 2Z" fill="#9A95A4"/>
<path fill-rule="evenodd" clip-rule="evenodd" d="M2 14C2 9.58 5.58 6 10 6C14.42 6 18 9.58 18 14C18 18.42 14.42 22 10 22C5.58 22 2 18.42 2 14ZM9.0625 14.9375L10 17L10.9375 14.9375L13 14L10.9375 13.0625L10 11L9.0625 13.0625L7 14L9.0625 14.9375Z" fill="#9A95A4"/>
</g>
<defs>
<clipPath id="clip0_104_1117">
<rect width="24" height="24" fill="white"/>
</clipPath>
</defs>
</svg>
