<svg width="24" height="24" viewBox="0 0 24 24" fill="none" xmlns="http://www.w3.org/2000/svg">
<g clip-path="url(#clip0_104_1119)">
<path d="M10.65 19.8L8.925 18.225C7.15833 16.6083 5.56267 15.004 4.138 13.412C2.71267 11.8207 2 10.0667 2 8.14999C2 6.58333 2.525 5.27499 3.575 4.22499C4.625 3.17499 5.93333 2.64999 7.5 2.64999C8.38333 2.64999 9.21667 2.83733 10 3.21199C10.7833 3.58733 11.45 4.09999 12 4.74999C12.55 4.09999 13.2167 3.58733 14 3.21199C14.7833 2.83733 15.6167 2.64999 16.5 2.64999C18.0667 2.64999 19.375 3.17499 20.425 4.22499C21.475 5.27499 22 6.58333 22 8.14999C22 10.0667 21.2917 11.825 19.875 13.425C18.4583 15.025 16.85 16.6333 15.05 18.25L13.35 19.8C12.9667 20.1667 12.5167 20.35 12 20.35C11.4833 20.35 11.0333 20.1667 10.65 19.8ZM11.05 6.74999C10.5667 6.06666 10.05 5.54566 9.5 5.18699C8.95 4.82899 8.28333 4.64999 7.5 4.64999C6.5 4.64999 5.66667 4.98333 5 5.64999C4.33333 6.31666 4 7.14999 4 8.14999C4 9.01666 4.30833 9.93733 4.925 10.912C5.54167 11.8873 6.27933 12.8333 7.138 13.75C7.996 14.6667 8.87933 15.525 9.788 16.325C10.696 17.125 11.4333 17.7833 12 18.3C12.5667 17.7833 13.3043 17.125 14.213 16.325C15.121 15.525 16.0043 14.6667 16.863 13.75C17.721 12.8333 18.4583 11.8873 19.075 10.912C19.6917 9.93733 20 9.01666 20 8.14999C20 7.14999 19.6667 6.31666 19 5.64999C18.3333 4.98333 17.5 4.64999 16.5 4.64999C15.7167 4.64999 15.05 4.82899 14.5 5.18699C13.95 5.54566 13.4333 6.06666 12.95 6.74999C12.8333 6.91666 12.6917 7.04166 12.525 7.12499C12.3583 7.20833 12.1833 7.24999 12 7.24999C11.8167 7.24999 11.6417 7.20833 11.475 7.12499C11.3083 7.04166 11.1667 6.91666 11.05 6.74999Z" fill="#9A95A4"/>
</g>
<defs>
<clipPath id="clip0_104_1119">
<rect width="24" height="24" fill="white"/>
</clipPath>
</defs>
</svg>
