<svg width="24" height="24" viewBox="0 0 24 24" fill="none" xmlns="http://www.w3.org/2000/svg">
<g clip-path="url(#clip0_104_1145)">
<path d="M6.69999 19.3C6.51665 19.1167 6.42499 18.8833 6.42499 18.6C6.42499 18.3167 6.51665 18.0833 6.69999 17.9L11 13.6V6.87501L9.12499 8.75001C8.94165 8.93335 8.71265 9.02501 8.43799 9.02501C8.16265 9.02501 7.92499 8.92501 7.72499 8.72501C7.52499 8.52501 7.42499 8.28735 7.42499 8.01201C7.42499 7.73735 7.52499 7.50001 7.72499 7.30001L11.3 3.72501C11.4 3.62501 11.5083 3.55401 11.625 3.51201C11.7417 3.47068 11.8667 3.45001 12 3.45001C12.1333 3.45001 12.2583 3.47068 12.375 3.51201C12.4917 3.55401 12.6 3.62501 12.7 3.72501L16.325 7.35001C16.5083 7.53335 16.6043 7.76235 16.613 8.03701C16.621 8.31235 16.525 8.55001 16.325 8.75001C16.125 8.95001 15.8877 9.05001 15.613 9.05001C15.3377 9.05001 15.1 8.95001 14.9 8.75001L13 6.87501V14.4L8.07499 19.325C7.89165 19.5083 7.66665 19.6 7.39999 19.6C7.13332 19.6 6.89999 19.5 6.69999 19.3ZM15.9 19.325L13.4 16.85L14.825 15.425L17.325 17.95C17.5083 18.1333 17.6 18.3583 17.6 18.625C17.6 18.8917 17.5 19.125 17.3 19.325C17.1167 19.5083 16.8877 19.6 16.613 19.6C16.3377 19.6 16.1 19.5083 15.9 19.325Z" fill="#9A95A4"/>
</g>
<defs>
<clipPath id="clip0_104_1145">
<rect width="24" height="24" fill="white"/>
</clipPath>
</defs>
</svg>
