<svg width="24" height="24" viewBox="0 0 24 24" fill="none" xmlns="http://www.w3.org/2000/svg">
<g clip-path="url(#clip0_104_1182)">
<path d="M12 16C11.7167 16 11.4793 15.904 11.288 15.712C11.096 15.5207 11 15.2833 11 15V7.825L9.1 9.7C8.91667 9.88334 8.68767 9.97934 8.413 9.988C8.13767 9.996 7.9 9.9 7.7 9.7C7.51667 9.51667 7.425 9.28334 7.425 9C7.425 8.71667 7.51667 8.48334 7.7 8.3L11.3 4.7C11.4 4.6 11.5083 4.529 11.625 4.487C11.7417 4.44567 11.8667 4.425 12 4.425C12.1333 4.425 12.2583 4.44567 12.375 4.487C12.4917 4.529 12.6 4.6 12.7 4.7L16.3 8.3C16.4833 8.48334 16.579 8.71234 16.587 8.987C16.5957 9.26234 16.5 9.5 16.3 9.7C16.1167 9.88334 15.8833 9.975 15.6 9.975C15.3167 9.975 15.0833 9.88334 14.9 9.7L13 7.825V15C13 15.2833 12.9043 15.5207 12.713 15.712C12.521 15.904 12.2833 16 12 16ZM8 20C7.71667 20 7.479 19.904 7.287 19.712C7.09567 19.5207 7 19.2833 7 19C7 18.7167 7.09567 18.4793 7.287 18.288C7.479 18.096 7.71667 18 8 18H16C16.2833 18 16.5207 18.096 16.712 18.288C16.904 18.4793 17 18.7167 17 19C17 19.2833 16.904 19.5207 16.712 19.712C16.5207 19.904 16.2833 20 16 20H8Z" fill="#9A95A4"/>
</g>
<defs>
<clipPath id="clip0_104_1182">
<rect width="24" height="24" fill="white"/>
</clipPath>
</defs>
</svg>
