<svg width="24" height="24" viewBox="0 0 24 24" fill="none" xmlns="http://www.w3.org/2000/svg">
<g clip-path="url(#clip0_104_1125)">
<path d="M14.85 10.6L13.4 9.15L16.6 6H15C14.7167 6 14.4793 5.90433 14.288 5.713C14.096 5.521 14 5.28333 14 5C14 4.71667 14.096 4.479 14.288 4.287C14.4793 4.09567 14.7167 4 15 4H19C19.2833 4 19.5207 4.09567 19.712 4.287C19.904 4.479 20 4.71667 20 5V9C20 9.28333 19.904 9.52067 19.712 9.712C19.5207 9.904 19.2833 10 19 10C18.7167 10 18.4793 9.904 18.288 9.712C18.096 9.52067 18 9.28333 18 9V7.4L14.85 10.6ZM12 20C11.7167 20 11.4793 19.904 11.288 19.712C11.096 19.5207 11 19.2833 11 19V12.4L6 7.4V9C6 9.28333 5.90433 9.52067 5.713 9.712C5.521 9.904 5.28333 10 5 10C4.71667 10 4.479 9.904 4.287 9.712C4.09567 9.52067 4 9.28333 4 9V5C4 4.71667 4.09567 4.479 4.287 4.287C4.479 4.09567 4.71667 4 5 4H9C9.28333 4 9.521 4.09567 9.713 4.287C9.90433 4.479 10 4.71667 10 5C10 5.28333 9.90433 5.521 9.713 5.713C9.521 5.90433 9.28333 6 9 6H7.4L13 11.6V19C13 19.2833 12.9043 19.5207 12.713 19.712C12.521 19.904 12.2833 20 12 20Z" fill="#9A95A4"/>
</g>
<defs>
<clipPath id="clip0_104_1125">
<rect width="24" height="24" fill="white"/>
</clipPath>
</defs>
</svg>
