<svg width="24" height="24" viewBox="0 0 24 24" fill="none" xmlns="http://www.w3.org/2000/svg">
<g clip-path="url(#clip0_104_1106)">
<path d="M12 21C10.6167 21 9.43767 20.5127 8.463 19.538C7.48767 18.5627 7 17.3833 7 16C7 15.2 7.175 14.454 7.525 13.762C7.875 13.0707 8.36667 12.4833 9 12V6C9 5.16667 9.29167 4.45833 9.875 3.875C10.4583 3.29167 11.1667 3 12 3C12.8333 3 13.5417 3.29167 14.125 3.875C14.7083 4.45833 15 5.16667 15 6V12C15.6333 12.4833 16.125 13.0707 16.475 13.762C16.825 14.454 17 15.2 17 16C17 17.3833 16.5127 18.5627 15.538 19.538C14.5627 20.5127 13.3833 21 12 21ZM11 10H13V6C13 5.71667 12.9043 5.479 12.713 5.287C12.521 5.09567 12.2833 5 12 5C11.7167 5 11.4793 5.09567 11.288 5.287C11.096 5.479 11 5.71667 11 6V10Z" fill="#9A95A4"/>
</g>
<defs>
<clipPath id="clip0_104_1106">
<rect width="24" height="24" fill="white"/>
</clipPath>
</defs>
</svg>
