<svg width="24" height="24" viewBox="0 0 24 24" fill="none" xmlns="http://www.w3.org/2000/svg">
<g clip-path="url(#clip0_104_1140)">
<path d="M6 22C5.16667 22 4.45833 21.7083 3.875 21.125C3.29167 20.5417 3 19.8333 3 19V17C3 16.7167 3.096 16.4793 3.288 16.288C3.47933 16.096 3.71667 16 4 16H6V2.72501C6 2.57501 6.06667 2.48335 6.2 2.45001C6.33333 2.41668 6.46667 2.46668 6.6 2.60001L7.5 3.50001L8.65 2.35001C8.75 2.25001 8.86667 2.20001 9 2.20001C9.13333 2.20001 9.25 2.25001 9.35 2.35001L10.5 3.50001L11.65 2.35001C11.75 2.25001 11.8667 2.20001 12 2.20001C12.1333 2.20001 12.25 2.25001 12.35 2.35001L13.5 3.50001L14.65 2.35001C14.75 2.25001 14.8667 2.20001 15 2.20001C15.1333 2.20001 15.25 2.25001 15.35 2.35001L16.5 3.50001L17.65 2.35001C17.75 2.25001 17.8667 2.20001 18 2.20001C18.1333 2.20001 18.25 2.25001 18.35 2.35001L19.5 3.50001L20.4 2.60001C20.5333 2.46668 20.6667 2.41235 20.8 2.43701C20.9333 2.46235 21 2.55835 21 2.72501V19C21 19.8333 20.7083 20.5417 20.125 21.125C19.5417 21.7083 18.8333 22 18 22H6ZM18 20C18.2833 20 18.5207 19.904 18.712 19.712C18.904 19.5207 19 19.2833 19 19V5.00001H8V16H16C16.2833 16 16.5207 16.096 16.712 16.288C16.904 16.4793 17 16.7167 17 17V19C17 19.2833 17.096 19.5207 17.288 19.712C17.4793 19.904 17.7167 20 18 20ZM12.975 9.00001C12.6917 9.00001 12.4583 8.90401 12.275 8.71201C12.0917 8.52068 12 8.28335 12 8.00001C12 7.71668 12.096 7.47901 12.288 7.28701C12.4793 7.09568 12.7167 7.00001 13 7.00001H17C17.2833 7.00001 17.521 7.09568 17.713 7.28701C17.9043 7.47901 18 7.71668 18 8.00001C18 8.28335 17.9043 8.52068 17.713 8.71201C17.521 8.90401 17.2833 9.00001 17 9.00001H12.975ZM12.975 12C12.6917 12 12.4583 11.904 12.275 11.712C12.0917 11.5207 12 11.2833 12 11C12 10.7167 12.096 10.479 12.288 10.287C12.4793 10.0957 12.7167 10 13 10H17C17.2833 10 17.521 10.0957 17.713 10.287C17.9043 10.479 18 10.7167 18 11C18 11.2833 17.9043 11.5207 17.713 11.712C17.521 11.904 17.2833 12 17 12H12.975ZM10 9.00001C9.71667 9.00001 9.47933 8.90401 9.288 8.71201C9.096 8.52068 9 8.28335 9 8.00001C9 7.71668 9.096 7.47901 9.288 7.28701C9.47933 7.09568 9.71667 7.00001 10 7.00001C10.2833 7.00001 10.5207 7.09568 10.712 7.28701C10.904 7.47901 11 7.71668 11 8.00001C11 8.28335 10.904 8.52068 10.712 8.71201C10.5207 8.90401 10.2833 9.00001 10 9.00001ZM10 12C9.71667 12 9.47933 11.904 9.288 11.712C9.096 11.5207 9 11.2833 9 11C9 10.7167 9.096 10.479 9.288 10.287C9.47933 10.0957 9.71667 10 10 10C10.2833 10 10.5207 10.0957 10.712 10.287C10.904 10.479 11 10.7167 11 11C11 11.2833 10.904 11.5207 10.712 11.712C10.5207 11.904 10.2833 12 10 12Z" fill="#9A95A4"/>
</g>
<defs>
<clipPath id="clip0_104_1140">
<rect width="24" height="24" fill="white"/>
</clipPath>
</defs>
</svg>
