<svg width="24" height="24" viewBox="0 0 24 24" fill="none" xmlns="http://www.w3.org/2000/svg">
<g clip-path="url(#clip0_104_1109)">
<path d="M13 11V2.10001C15.3833 2.35001 17.396 3.30001 19.038 4.95001C20.6793 6.60001 21.6333 8.61667 21.9 11H13ZM11.025 21.875C8.49164 21.625 6.37098 20.5583 4.66298 18.675C2.95431 16.7917 2.09998 14.5667 2.09998 12C2.09998 9.41667 2.95431 7.18334 4.66298 5.30001C6.37098 3.41667 8.49164 2.35001 11.025 2.10001V21.875ZM13 21.875V12.975H21.9C21.6666 15.3583 20.7206 17.3793 19.062 19.038C17.404 20.696 15.3833 21.6417 13 21.875Z" fill="#9A95A4"/>
</g>
<defs>
<clipPath id="clip0_104_1109">
<rect width="24" height="24" fill="white"/>
</clipPath>
</defs>
</svg>
