<svg width="24" height="24" viewBox="0 0 24 24" fill="none" xmlns="http://www.w3.org/2000/svg">
<g clip-path="url(#clip0_104_1116)">
<path d="M6 11L4.75 8.25L2 7L4.75 5.75L6 3L7.25 5.75L10 7L7.25 8.25L6 11Z" fill="#9A95A4"/>
<path d="M10.92 4C10.92 3.44772 11.3677 3 11.92 3C16.8923 3 20.92 7.02772 20.92 12C20.92 16.9723 16.8923 21 11.92 21C8.58773 21 5.685 19.1862 4.13401 16.5C3.85785 16.0218 4.0217 15.4102 4.49998 15.134C4.97826 14.8578 5.58986 15.0217 5.86602 15.5C7.07503 17.5938 9.33229 19 11.92 19C15.7877 19 18.92 15.8677 18.92 12C18.92 8.13228 15.7877 5 11.92 5C11.3677 5 10.92 4.55228 10.92 4Z" fill="#9A95A4"/>
<path d="M15 15C14.9075 15.0927 14.7976 15.1663 14.6766 15.2164C14.5557 15.2666 14.426 15.2924 14.295 15.2924C14.164 15.2924 14.0343 15.2666 13.9134 15.2164C13.7924 15.1663 13.6825 15.0927 13.59 15L11.3 12.71C11.2055 12.6174 11.1303 12.5069 11.0788 12.3851C11.0273 12.2632 11.0005 12.1323 11 12V9C11 8.45 11.45 8 12 8C12.55 8 13 8.45 13 9V11.59L15 13.59C15.39 13.98 15.39 14.61 15 15Z" fill="#9A95A4"/>
</g>
<defs>
<clipPath id="clip0_104_1116">
<rect width="24" height="24" fill="white"/>
</clipPath>
</defs>
</svg>
