<svg width="24" height="24" viewBox="0 0 24 24" fill="none" xmlns="http://www.w3.org/2000/svg">
<g clip-path="url(#clip0_104_1115)">
<path fill-rule="evenodd" clip-rule="evenodd" d="M11.98 2.26C12.64 2.09 13.32 2 14 2C18.41 2 22 5.59 22.01 10.01C22.01 10.69 21.92 11.37 21.75 12.03C21.63 12.48 21.22 12.78 20.78 12.78C20.7 12.78 20.61 12.77 20.53 12.75C19.99 12.61 19.67 12.06 19.81 11.53C19.93 11.03 20 10.52 20 10.01C20 6.7 17.31 4.01 14 4.01C13.48 4.01 12.97 4.07 12.48 4.2C11.95 4.33 11.4 4.01 11.26 3.48C11.13 2.95 11.45 2.4 11.98 2.26ZM2 14C2 9.58 5.58 6 10 6C14.42 6 18 9.58 18 14C18 18.42 14.42 22 10 22C5.58 22 2 18.42 2 14Z" fill="#9A95A4"/>
</g>
<defs>
<clipPath id="clip0_104_1115">
<rect width="24" height="24" fill="white"/>
</clipPath>
</defs>
</svg>
