<svg width="24" height="24" viewBox="0 0 24 24" fill="none" xmlns="http://www.w3.org/2000/svg">
<g clip-path="url(#clip0_104_1171)">
<path d="M14 18.175V12C14 11.7167 14.096 11.479 14.288 11.287C14.4793 11.0957 14.7167 11 15 11C15.2833 11 15.521 11.0957 15.713 11.287C15.9043 11.479 16 11.7167 16 12V18.175L17.875 16.3C18.0583 16.1167 18.2873 16.0207 18.562 16.012C18.8373 16.004 19.075 16.1 19.275 16.3C19.475 16.4833 19.5793 16.7123 19.588 16.987C19.596 17.2623 19.5 17.5 19.3 17.7L15.7 21.3C15.6 21.4 15.4917 21.4707 15.375 21.512C15.2583 21.554 15.1333 21.575 15 21.575C14.8667 21.575 14.7417 21.554 14.625 21.512C14.5083 21.4707 14.4 21.4 14.3 21.3L10.7 17.7C10.5167 17.5167 10.425 17.2877 10.425 17.013C10.425 16.7377 10.525 16.5 10.725 16.3C10.925 16.1167 11.1583 16.0207 11.425 16.012C11.6917 16.004 11.925 16.1 12.125 16.3L14 18.175ZM8 5.82499L6.125 7.69999C5.90834 7.91665 5.66667 8.01665 5.4 7.99999C5.13334 7.98332 4.90834 7.88332 4.725 7.69999C4.525 7.49999 4.425 7.26232 4.425 6.98699C4.425 6.71232 4.51667 6.48332 4.7 6.29999L8.3 2.69999C8.4 2.59999 8.50834 2.52899 8.625 2.48699C8.74167 2.44565 8.86667 2.42499 9 2.42499C9.13334 2.42499 9.25834 2.44565 9.375 2.48699C9.49167 2.52899 9.6 2.59999 9.7 2.69999L13.3 6.29999C13.4833 6.48332 13.575 6.71665 13.575 6.99999C13.575 7.28332 13.4833 7.51665 13.3 7.69999C13.1 7.89999 12.8627 7.99999 12.588 7.99999C12.3127 7.99999 12.075 7.89999 11.875 7.69999L10 5.82499V12C10 12.2833 9.90434 12.5207 9.713 12.712C9.521 12.904 9.28334 13 9 13C8.71667 13 8.47934 12.904 8.288 12.712C8.096 12.5207 8 12.2833 8 12V5.82499Z" fill="#9A95A4"/>
</g>
<defs>
<clipPath id="clip0_104_1171">
<rect width="24" height="24" fill="white"/>
</clipPath>
</defs>
</svg>
