<svg width="24" height="24" viewBox="0 0 24 24" fill="none" xmlns="http://www.w3.org/2000/svg">
<g clip-path="url(#clip0_104_1134)">
<path d="M10.85 21.525C9.95 20.875 8.98767 20.35 7.963 19.95C6.93767 19.55 5.86667 19.275 4.75 19.125C4.25 19.0583 3.83333 18.8457 3.5 18.487C3.16667 18.129 3 17.7167 3 17.25V10.2C3 9.56667 3.21667 9.04567 3.65 8.637C4.08333 8.229 4.59167 8.075 5.175 8.175C6.45833 8.39167 7.67933 8.78333 8.838 9.35C9.996 9.91667 11.05 10.65 12 11.55C12.95 10.65 14.0043 9.91667 15.163 9.35C16.321 8.78333 17.5417 8.39167 18.825 8.175C19.4083 8.075 19.9167 8.229 20.35 8.637C20.7833 9.04567 21 9.56667 21 10.2V17.25C21 17.7167 20.8333 18.129 20.5 18.487C20.1667 18.8457 19.75 19.0583 19.25 19.125C18.1333 19.275 17.0627 19.55 16.038 19.95C15.0127 20.35 14.05 20.875 13.15 21.525C12.8167 21.775 12.4333 21.9 12 21.9C11.5667 21.9 11.1833 21.775 10.85 21.525ZM12 9C10.9 9 9.95833 8.60833 9.175 7.825C8.39167 7.04167 8 6.1 8 5C8 3.9 8.39167 2.95833 9.175 2.175C9.95833 1.39167 10.9 1 12 1C13.1 1 14.0417 1.39167 14.825 2.175C15.6083 2.95833 16 3.9 16 5C16 6.1 15.6083 7.04167 14.825 7.825C14.0417 8.60833 13.1 9 12 9Z" fill="#9A95A4"/>
</g>
<defs>
<clipPath id="clip0_104_1134">
<rect width="24" height="24" fill="white"/>
</clipPath>
</defs>
</svg>
