<svg width="24" height="24" viewBox="0 0 24 24" fill="none" xmlns="http://www.w3.org/2000/svg">
<g clip-path="url(#clip0_104_1167)">
<path d="M6.69999 14.7C6.51665 14.5167 6.42499 14.2833 6.42499 14C6.42499 13.7167 6.51665 13.4833 6.69999 13.3L11.3 8.69999C11.4 8.59999 11.5083 8.52899 11.625 8.48699C11.7417 8.44565 11.8667 8.42499 12 8.42499C12.1333 8.42499 12.2627 8.44999 12.388 8.49999C12.5127 8.54999 12.6167 8.61665 12.7 8.69999L17.3 13.3C17.4833 13.4833 17.575 13.7167 17.575 14C17.575 14.2833 17.4833 14.5167 17.3 14.7C17.1167 14.8833 16.8833 14.975 16.6 14.975C16.3167 14.975 16.0833 14.8833 15.9 14.7L12 10.8L8.09999 14.7C7.91665 14.8833 7.68332 14.975 7.39999 14.975C7.11665 14.975 6.88332 14.8833 6.69999 14.7Z" fill="#9A95A4"/>
</g>
<defs>
<clipPath id="clip0_104_1167">
<rect width="24" height="24" fill="white"/>
</clipPath>
</defs>
</svg>
