<svg width="24" height="24" viewBox="0 0 24 24" fill="none" xmlns="http://www.w3.org/2000/svg">
<g clip-path="url(#clip0_104_1171)">
<path d="M14 18.175V12C14 11.7167 14.096 11.479 14.288 11.287C14.4793 11.0957 14.7167 11 15 11C15.2833 11 15.521 11.0957 15.713 11.287C15.9043 11.479 16 11.7167 16 12V18.175L17.875 16.3C18.0583 16.1167 18.2873 16.0207 18.562 16.012C18.8373 16.004 19.075 16.1 19.275 16.3C19.475 16.4833 19.5793 16.7123 19.588 16.987C19.596 17.2623 19.5 17.5 19.3 17.7L15.7 21.3C15.6 21.4 15.4917 21.4707 15.375 21.512C15.2583 21.554 15.1333 21.575 15 21.575C14.8667 21.575 14.7417 21.554 14.625 21.512C14.5083 21.4707 14.4 21.4 14.3 21.3L10.7 17.7C10.5167 17.5167 10.425 17.2877 10.425 17.013C10.425 16.7377 10.525 16.5 10.725 16.3C10.925 16.1167 11.1583 16.0207 11.425 16.012C11.6917 16.004 11.925 16.1 12.125 16.3L14 18.175ZM7.99999 5.825L6.12499 7.7C5.90832 7.91667 5.66665 8.01667 5.39999 8C5.13332 7.98333 4.90832 7.88333 4.72499 7.7C4.52499 7.5 4.42499 7.26233 4.42499 6.987C4.42499 6.71233 4.51665 6.48333 4.69999 6.3L8.29999 2.7C8.39999 2.6 8.50832 2.529 8.62499 2.487C8.74165 2.44567 8.86665 2.425 8.99999 2.425C9.13332 2.425 9.25832 2.44567 9.37499 2.487C9.49165 2.529 9.59999 2.6 9.69999 2.7L13.3 6.3C13.4833 6.48333 13.575 6.71667 13.575 7C13.575 7.28333 13.4833 7.51667 13.3 7.7C13.1 7.9 12.8627 8 12.588 8C12.3127 8 12.075 7.9 11.875 7.7L9.99999 5.825V12C9.99999 12.2833 9.90432 12.5207 9.71299 12.712C9.52099 12.904 9.28332 13 8.99999 13C8.71665 13 8.47932 12.904 8.28799 12.712C8.09599 12.5207 7.99999 12.2833 7.99999 12V5.825Z" fill="#9A95A4"/>
</g>
<defs>
<clipPath id="clip0_104_1171">
<rect width="24" height="24" fill="white"/>
</clipPath>
</defs>
</svg>
