<svg width="24" height="24" viewBox="0 0 24 24" fill="none" xmlns="http://www.w3.org/2000/svg">
<g clip-path="url(#clip0_104_1088)">
<path fill-rule="evenodd" clip-rule="evenodd" d="M6.23616 6.3775L5.14053 5.99437C4.65178 5.82375 4.51803 5.35625 4.88116 4.9875C6.69553 3.14438 9.21616 2 12.0005 2C17.5143 2 22.0005 6.48625 22.0005 12C22.0005 17.5144 17.5143 22 12.0005 22C9.21616 22 6.69553 20.855 4.88116 19.0131C4.51803 18.6438 4.65178 18.1769 5.13991 18.0063L6.23616 17.6225C6.56116 17.5087 7.02741 17.6119 7.29491 17.8294C8.58241 18.8719 10.218 19.5 12.0005 19.5C16.1362 19.5 19.5005 16.1362 19.5005 12C19.5005 7.86438 16.1362 4.5 12.0005 4.5C10.218 4.5 8.58303 5.12812 7.29491 6.17125C7.02741 6.38812 6.56178 6.49188 6.23616 6.3775ZM3.0825 15.8173C3.26 15.9079 3.45437 15.9535 3.64937 15.9535C3.78875 15.9535 3.92812 15.9304 4.06187 15.8835L11.7875 13.1804C12.2894 13.0048 12.625 12.531 12.625 12.0004C12.625 11.4691 12.2894 10.9954 11.7881 10.8204L4.0625 8.11663C3.74062 8.0035 3.38625 8.02788 3.0825 8.18225C2.77812 8.33663 2.55125 8.60913 2.4525 8.93538C2.15187 9.931 2 10.9623 2 12.0004C2 13.0379 2.15187 14.0685 2.4525 15.0641C2.55125 15.391 2.77812 15.6629 3.0825 15.8173Z" fill="#9A95A4"/>
</g>
<defs>
<clipPath id="clip0_104_1088">
<rect width="24" height="24" fill="white"/>
</clipPath>
</defs>
</svg>
