<svg width="24" height="24" viewBox="0 0 24 24" fill="none" xmlns="http://www.w3.org/2000/svg">
<g clip-path="url(#clip0_104_1100)">
<path d="M11 8C11 7.44772 11.4477 7 12 7C12.5523 7 13 7.44772 13 8V10H15C15.5523 10 16 10.4477 16 11C16 11.5523 15.5523 12 15 12H13V14C13 14.5523 12.5523 15 12 15C11.4477 15 11 14.5523 11 14V12H9C8.44772 12 8 11.5523 8 11C8 10.4477 8.44772 10 9 10H11V8Z" fill="#9A95A4"/>
<path fill-rule="evenodd" clip-rule="evenodd" d="M5 21H4C2.9 21 2 20.1 2 19V3C2 1.9 2.9 1 4 1H20C21.1 1 22 1.9 22 3L22 19C22 20.1 21.1 21 20 21H19V22C19 22.55 18.55 23 18 23C17.45 23 17 22.55 17 22V21L7 21V22C7 22.55 6.55 23 6 23C5.45 23 5 22.55 5 22L5 21ZM19 3L5 3C4.45 3 4 3.45 4 4L4 18C4 18.5523 4.44772 19 5 19L19 19C19.5523 19 20 18.5523 20 18L20 4C20 3.45 19.55 3 19 3Z" fill="#9A95A4"/>
</g>
<defs>
<clipPath id="clip0_104_1100">
<rect width="24" height="24" fill="white"/>
</clipPath>
</defs>
</svg>
