<svg width="24" height="24" viewBox="0 0 24 24" fill="none" xmlns="http://www.w3.org/2000/svg">
<g clip-path="url(#clip0_104_1160)">
<path d="M9.00002 16.17L5.53002 12.7C5.34305 12.513 5.08945 12.408 4.82502 12.408C4.5606 12.408 4.307 12.513 4.12002 12.7C3.93305 12.887 3.828 13.1406 3.828 13.405C3.828 13.5359 3.85379 13.6656 3.9039 13.7865C3.954 13.9075 4.02744 14.0174 4.12002 14.11L8.30002 18.29C8.69002 18.68 9.32002 18.68 9.71002 18.29L20.29 7.70999C20.477 7.52301 20.582 7.26941 20.582 7.00499C20.582 6.74056 20.477 6.48696 20.29 6.29999C20.103 6.11301 19.8494 6.00797 19.585 6.00797C19.3206 6.00797 19.067 6.11301 18.88 6.29999L9.00002 16.17Z" fill="#9A95A4"/>
</g>
<defs>
<clipPath id="clip0_104_1160">
<rect width="24" height="24" fill="white"/>
</clipPath>
</defs>
</svg>
