<svg width="24" height="24" viewBox="0 0 24 24" fill="none" xmlns="http://www.w3.org/2000/svg">
<g clip-path="url(#clip0_104_1148)">
<path d="M5 21C4.45 21 3.979 20.8043 3.587 20.413C3.19567 20.021 3 19.55 3 19V5C3 4.45 3.19567 3.979 3.587 3.587C3.979 3.19567 4.45 3 5 3H19C19.55 3 20.021 3.19567 20.413 3.587C20.8043 3.979 21 4.45 21 5V19C21 19.55 20.8043 20.021 20.413 20.413C20.021 20.8043 19.55 21 19 21H5ZM12 18C12.35 18 12.6457 17.879 12.887 17.637C13.129 17.3957 13.25 17.1 13.25 16.75C13.25 16.4 13.129 16.1043 12.887 15.863C12.6457 15.621 12.35 15.5 12 15.5C11.65 15.5 11.3543 15.621 11.113 15.863C10.871 16.1043 10.75 16.4 10.75 16.75C10.75 17.1 10.871 17.3957 11.113 17.637C11.3543 17.879 11.65 18 12 18ZM13 13.3C13.05 13.0333 13.1377 12.8 13.263 12.6C13.3877 12.4 13.6333 12.1167 14 11.75C14.6167 11.1333 15.0333 10.6333 15.25 10.25C15.4667 9.86667 15.575 9.43333 15.575 8.95C15.575 8.1 15.2627 7.396 14.638 6.838C14.0127 6.27933 13.225 6 12.275 6C11.5583 6 10.921 6.146 10.363 6.438C9.80433 6.72933 9.375 7.11667 9.075 7.6C8.925 7.83333 8.88333 8.079 8.95 8.337C9.01667 8.59567 9.16667 8.775 9.4 8.875C9.63333 8.975 9.86267 8.979 10.088 8.887C10.3127 8.79567 10.4917 8.64167 10.625 8.425C10.7917 8.19167 11.0167 8.01233 11.3 7.887C11.5833 7.76233 11.875 7.7 12.175 7.7C12.6417 7.7 13.0167 7.825 13.3 8.075C13.5833 8.325 13.725 8.64167 13.725 9.025C13.725 9.34167 13.6293 9.65833 13.438 9.975C13.246 10.2917 12.95 10.625 12.55 10.975C12.1167 11.3583 11.7833 11.75 11.55 12.15C11.3167 12.55 11.2 12.925 11.2 13.275C11.2 13.5083 11.2877 13.7083 11.463 13.875C11.6377 14.0417 11.85 14.125 12.1 14.125C12.3333 14.125 12.5293 14.0457 12.688 13.887C12.846 13.729 12.95 13.5333 13 13.3Z" fill="#9A95A4"/>
</g>
<defs>
<clipPath id="clip0_104_1148">
<rect width="24" height="24" fill="white"/>
</clipPath>
</defs>
</svg>
