<svg width="24" height="24" viewBox="0 0 24 24" fill="none" xmlns="http://www.w3.org/2000/svg">
<g clip-path="url(#clip0_104_1108)">
<path d="M2.72502 17.75C2.50836 17.5333 2.40002 17.2833 2.40002 17C2.40002 16.7167 2.50836 16.4667 2.72502 16.25L8.77502 10.2C8.97502 10 9.20836 9.9 9.47502 9.9C9.74169 9.9 9.97502 10 10.175 10.2L13.475 13.5L19.875 6.275C20.0584 6.05833 20.296 5.95 20.588 5.95C20.8794 5.95 21.125 6.05 21.325 6.25C21.5084 6.43333 21.6044 6.654 21.613 6.912C21.621 7.17066 21.5334 7.4 21.35 7.6L14.175 15.7C13.9917 15.9167 13.7544 16.0293 13.463 16.038C13.171 16.046 12.925 15.95 12.725 15.75L9.47502 12.5L4.22502 17.75C4.00836 17.9667 3.75836 18.075 3.47502 18.075C3.19169 18.075 2.94169 17.9667 2.72502 17.75Z" fill="#9A95A4"/>
</g>
<defs>
<clipPath id="clip0_104_1108">
<rect width="24" height="24" fill="white"/>
</clipPath>
</defs>
</svg>
