<svg width="24" height="24" viewBox="0 0 24 24" fill="none" xmlns="http://www.w3.org/2000/svg">
<g clip-path="url(#clip0_104_1122)">
<path d="M19.85 8.06C19.75 7.82 19.61 7.61 19.43 7.42L14.58 2.58C14.4 2.4 14.18 2.25 13.94 2.15C13.7 2.05 13.44 2 13.18 2H6C5.45 2 4.98 2.2 4.59 2.59C4.2 2.98 4 3.45 4 4V20C4 20.55 4.2 21.02 4.59 21.41C4.98 21.8 5.45 22 6 22H18C18.55 22 19.02 21.8 19.41 21.41C19.8 21.02 20 20.55 20 20V8.83C20 8.56 19.95 8.31 19.85 8.07V8.06ZM13 17C13 17.28 12.9 17.52 12.71 17.71C12.52 17.9 12.28 18 12 18C11.72 18 11.48 17.9 11.29 17.71C11.1 17.52 11 17.28 11 17V13.5C11 13.22 11.1 12.98 11.29 12.79C11.48 12.6 11.72 12.5 12 12.5C12.28 12.5 12.52 12.6 12.71 12.79C12.9 12.98 13 13.22 13 13.5V17ZM12.71 10.21C12.52 10.4 12.28 10.5 12 10.5C11.72 10.5 11.48 10.4 11.29 10.21C11.1 10.02 11 9.78 11 9.5C11 9.22 11.1 8.98 11.29 8.79C11.48 8.6 11.72 8.5 12 8.5C12.28 8.5 12.52 8.6 12.71 8.79C12.9 8.98 13 9.22 13 9.5C13 9.78 12.9 10.02 12.71 10.21Z" fill="#9A95A4"/>
</g>
<defs>
<clipPath id="clip0_104_1122">
<rect width="24" height="24" fill="white"/>
</clipPath>
</defs>
</svg>
