<svg width="24" height="24" viewBox="0 0 24 24" fill="none" xmlns="http://www.w3.org/2000/svg">
<g clip-path="url(#clip0_104_1097)">
<path fill-rule="evenodd" clip-rule="evenodd" d="M13.463 10.538C14.4377 11.5127 15.6167 12 17 12C18.3833 12 19.5627 11.5127 20.538 10.538C21.5127 9.56267 22 8.38333 22 7C22 5.61667 21.5127 4.43733 20.538 3.462C19.5627 2.48733 18.3833 2 17 2C15.6167 2 14.4377 2.48733 13.463 3.462C12.4877 4.43733 12 5.61667 12 7C12 8.38333 12.4877 9.56267 13.463 10.538ZM1 13V20C1 20.55 1.196 21.021 1.588 21.413C1.97933 21.8043 2.45 22 3 22C3.55 22 4.02067 21.8043 4.412 21.413C4.804 21.021 5 20.55 5 20V13C5 12.45 4.804 11.979 4.412 11.587C4.02067 11.1957 3.55 11 3 11C2.45 11 1.97933 11.1957 1.588 11.587C1.196 11.979 1 12.45 1 13ZM7 20.025L13.375 21.825C13.5583 21.875 13.7707 21.8957 14.012 21.887C14.254 21.879 14.4583 21.8417 14.625 21.775L22 19C22 18.4333 21.8 17.9583 21.4 17.575C21 17.1917 20.5333 17 20 17H13.15C13.1 17 13.0417 16.996 12.975 16.988C12.9083 16.9793 12.8583 16.9667 12.825 16.95L11.35 16.425C11.2167 16.375 11.125 16.2917 11.075 16.175C11.025 16.0583 11.0167 15.9333 11.05 15.8C11.0833 15.6833 11.1667 15.5917 11.3 15.525C11.4333 15.4583 11.5667 15.45 11.7 15.5L12.825 15.925C12.8917 15.9583 12.946 15.9793 12.988 15.988C13.0293 15.996 13.0917 16 13.175 16H15.8C16.1167 16 16.396 15.8917 16.638 15.675C16.8793 15.4583 17 15.175 17 14.825C17 14.5917 16.9293 14.3667 16.788 14.15C16.646 13.9333 16.4583 13.7833 16.225 13.7L9.3 11.125C9.18333 11.0917 9.06667 11.0623 8.95 11.037C8.83333 11.0123 8.71667 11 8.6 11H7V20.025Z" fill="#9A95A4"/>
</g>
<defs>
<clipPath id="clip0_104_1097">
<rect width="24" height="24" fill="white"/>
</clipPath>
</defs>
</svg>
