<svg width="24" height="24" viewBox="0 0 24 24" fill="none" xmlns="http://www.w3.org/2000/svg">
<g clip-path="url(#clip0_104_1099)">
<path fill-rule="evenodd" clip-rule="evenodd" d="M17 12C15.6167 12 14.4377 11.5127 13.463 10.538C12.4877 9.56267 12 8.38333 12 7C12 5.61667 12.4877 4.43733 13.463 3.462C14.4377 2.48733 15.6167 2 17 2C18.3833 2 19.5627 2.48733 20.538 3.462C21.5127 4.43733 22 5.61667 22 7C22 8.38333 21.5127 9.56267 20.538 10.538C19.5627 11.5127 18.3833 12 17 12ZM14.5 6.5C14.2239 6.5 14 6.72386 14 7C14 7.27614 14.2239 7.5 14.5 7.5H19.5C19.7761 7.5 20 7.27614 20 7C20 6.72386 19.7761 6.5 19.5 6.5H14.5Z" fill="#9A95A4"/>
<path d="M1 20V13C1 12.45 1.196 11.979 1.588 11.587C1.97933 11.1957 2.45 11 3 11C3.55 11 4.02067 11.1957 4.412 11.587C4.804 11.979 5 12.45 5 13V20C5 20.55 4.804 21.021 4.412 21.413C4.02067 21.8043 3.55 22 3 22C2.45 22 1.97933 21.8043 1.588 21.413C1.196 21.021 1 20.55 1 20Z" fill="#9A95A4"/>
<path d="M13.375 21.825L7 20.025V11H8.6C8.71667 11 8.83333 11.0123 8.95 11.037C9.06667 11.0623 9.18333 11.0917 9.3 11.125L16.225 13.7C16.4583 13.7833 16.646 13.9333 16.788 14.15C16.9293 14.3667 17 14.5917 17 14.825C17 15.175 16.8793 15.4583 16.638 15.675C16.396 15.8917 16.1167 16 15.8 16H13.175C13.0917 16 13.0293 15.996 12.988 15.988C12.946 15.9793 12.8917 15.9583 12.825 15.925L11.7 15.5C11.5667 15.45 11.4333 15.4583 11.3 15.525C11.1667 15.5917 11.0833 15.6833 11.05 15.8C11.0167 15.9333 11.025 16.0583 11.075 16.175C11.125 16.2917 11.2167 16.375 11.35 16.425L12.825 16.95C12.8583 16.9667 12.9083 16.9793 12.975 16.988C13.0417 16.996 13.1 17 13.15 17H20C20.5333 17 21 17.1917 21.4 17.575C21.8 17.9583 22 18.4333 22 19L14.625 21.775C14.4583 21.8417 14.254 21.879 14.012 21.887C13.7707 21.8957 13.5583 21.875 13.375 21.825Z" fill="#9A95A4"/>
</g>
<defs>
<clipPath id="clip0_104_1099">
<rect width="24" height="24" fill="white"/>
</clipPath>
</defs>
</svg>
