<svg width="24" height="24" viewBox="0 0 24 24" fill="none" xmlns="http://www.w3.org/2000/svg">
<g clip-path="url(#clip0_104_1175)">
<path fill-rule="evenodd" clip-rule="evenodd" d="M12 11C12.9767 11 13.8576 10.7707 14.6424 10.312C15.4273 9.854 16.0465 9.25 16.5 8.5C15.8895 8.01667 15.2006 7.64567 14.4331 7.387C13.6657 7.129 12.8547 7 12 7C11.1453 7 10.3343 7.129 9.56686 7.387C8.79942 7.64567 8.11047 8.01667 7.5 8.5C7.95349 9.25 8.57268 9.854 9.35756 10.312C10.1424 10.7707 11.0233 11 12 11ZM12 6C12.5756 6 13.0685 5.804 13.4787 5.412C13.8883 5.02067 14.093 4.55 14.093 4C14.093 3.45 13.8883 2.97933 13.4787 2.588C13.0685 2.196 12.5756 2 12 2C11.4244 2 10.9319 2.196 10.5223 2.588C10.1121 2.97933 9.90698 3.45 9.90698 4C9.90698 4.55 10.1121 5.02067 10.5223 5.412C10.9319 5.804 11.4244 6 12 6ZM17.5 21C18.4767 21 19.3576 20.7707 20.1424 20.312C20.9273 19.854 21.5465 19.25 22 18.5C21.3895 18.0167 20.7006 17.6457 19.9331 17.387C19.1657 17.129 18.3547 17 17.5 17C16.6453 17 15.8343 17.129 15.0669 17.387C14.2994 17.6457 13.6105 18.0167 13 18.5C13.4535 19.25 14.0727 19.854 14.8576 20.312C15.6424 20.7707 16.5233 21 17.5 21ZM17.5 16C18.0756 16 18.5685 15.804 18.9787 15.412C19.3883 15.0207 19.593 14.55 19.593 14C19.593 13.45 19.3883 12.9793 18.9787 12.588C18.5685 12.196 18.0756 12 17.5 12C16.9244 12 16.4319 12.196 16.0223 12.588C15.6121 12.9793 15.407 13.45 15.407 14C15.407 14.55 15.6121 15.0207 16.0223 15.412C16.4319 15.804 16.9244 16 17.5 16ZM9.14244 20.312C8.35756 20.7707 7.47675 21 6.5 21C5.52326 21 4.64244 20.7707 3.85756 20.312C3.07268 19.854 2.45349 19.25 2 18.5C2.61047 18.0167 3.29942 17.6457 4.06686 17.387C4.8343 17.129 5.64535 17 6.5 17C7.35465 17 8.1657 17.129 8.93314 17.387C9.70058 17.6457 10.3895 18.0167 11 18.5C10.5465 19.25 9.92733 19.854 9.14244 20.312ZM7.97872 15.412C7.56849 15.804 7.07558 16 6.5 16C5.92442 16 5.43186 15.804 5.02233 15.412C4.61209 15.0207 4.40698 14.55 4.40698 14C4.40698 13.45 4.61209 12.9793 5.02233 12.588C5.43186 12.196 5.92442 12 6.5 12C7.07558 12 7.56849 12.196 7.97872 12.588C8.38826 12.9793 8.59302 13.45 8.59302 14C8.59302 14.55 8.38826 15.0207 7.97872 15.412Z" fill="#9A95A4"/>
</g>
<defs>
<clipPath id="clip0_104_1175">
<rect width="24" height="24" fill="white"/>
</clipPath>
</defs>
</svg>
