<svg width="24" height="24" viewBox="0 0 24 24" fill="none" xmlns="http://www.w3.org/2000/svg">
<g clip-path="url(#clip0_104_1140)">
<path d="M6 22C5.16667 22 4.45833 21.7083 3.875 21.125C3.29167 20.5417 3 19.8333 3 19V17C3 16.7167 3.096 16.4793 3.288 16.288C3.47933 16.096 3.71667 16 4 16H6V2.725C6 2.575 6.06667 2.48333 6.2 2.45C6.33333 2.41667 6.46667 2.46667 6.6 2.6L7.5 3.5L8.65 2.35C8.75 2.25 8.86667 2.2 9 2.2C9.13333 2.2 9.25 2.25 9.35 2.35L10.5 3.5L11.65 2.35C11.75 2.25 11.8667 2.2 12 2.2C12.1333 2.2 12.25 2.25 12.35 2.35L13.5 3.5L14.65 2.35C14.75 2.25 14.8667 2.2 15 2.2C15.1333 2.2 15.25 2.25 15.35 2.35L16.5 3.5L17.65 2.35C17.75 2.25 17.8667 2.2 18 2.2C18.1333 2.2 18.25 2.25 18.35 2.35L19.5 3.5L20.4 2.6C20.5333 2.46667 20.6667 2.41233 20.8 2.437C20.9333 2.46233 21 2.55833 21 2.725V19C21 19.8333 20.7083 20.5417 20.125 21.125C19.5417 21.7083 18.8333 22 18 22H6ZM18 20C18.2833 20 18.5207 19.904 18.712 19.712C18.904 19.5207 19 19.2833 19 19V5H8V16H16C16.2833 16 16.5207 16.096 16.712 16.288C16.904 16.4793 17 16.7167 17 17V19C17 19.2833 17.096 19.5207 17.288 19.712C17.4793 19.904 17.7167 20 18 20ZM12.975 9C12.6917 9 12.4583 8.904 12.275 8.712C12.0917 8.52067 12 8.28333 12 8C12 7.71667 12.096 7.479 12.288 7.287C12.4793 7.09567 12.7167 7 13 7H17C17.2833 7 17.521 7.09567 17.713 7.287C17.9043 7.479 18 7.71667 18 8C18 8.28333 17.9043 8.52067 17.713 8.712C17.521 8.904 17.2833 9 17 9H12.975ZM12.975 12C12.6917 12 12.4583 11.904 12.275 11.712C12.0917 11.5207 12 11.2833 12 11C12 10.7167 12.096 10.479 12.288 10.287C12.4793 10.0957 12.7167 10 13 10H17C17.2833 10 17.521 10.0957 17.713 10.287C17.9043 10.479 18 10.7167 18 11C18 11.2833 17.9043 11.5207 17.713 11.712C17.521 11.904 17.2833 12 17 12H12.975ZM10 9C9.71667 9 9.47933 8.904 9.288 8.712C9.096 8.52067 9 8.28333 9 8C9 7.71667 9.096 7.479 9.288 7.287C9.47933 7.09567 9.71667 7 10 7C10.2833 7 10.5207 7.09567 10.712 7.287C10.904 7.479 11 7.71667 11 8C11 8.28333 10.904 8.52067 10.712 8.712C10.5207 8.904 10.2833 9 10 9ZM10 12C9.71667 12 9.47933 11.904 9.288 11.712C9.096 11.5207 9 11.2833 9 11C9 10.7167 9.096 10.479 9.288 10.287C9.47933 10.0957 9.71667 10 10 10C10.2833 10 10.5207 10.0957 10.712 10.287C10.904 10.479 11 10.7167 11 11C11 11.2833 10.904 11.5207 10.712 11.712C10.5207 11.904 10.2833 12 10 12Z" fill="#9A95A4"/>
</g>
<defs>
<clipPath id="clip0_104_1140">
<rect width="24" height="24" fill="white"/>
</clipPath>
</defs>
</svg>
